<?xml version="1.0" encoding="utf-8"?>
<!-- Generator: Adobe Illustrator 25.3.1, SVG Export Plug-In . SVG Version: 6.00 Build 0)  -->
<svg version="1.1" xmlns="http://www.w3.org/2000/svg" xmlns:xlink="http://www.w3.org/1999/xlink" x="0px" y="0px"
	 viewBox="0 0 500 500" style="enable-background:new 0 0 500 500;" xml:space="preserve">
<g id="Floor">
	<path style="fill:#F5F5F5;" d="M413.32,247.81c-90.8-52.42-237.54-52.42-327.75,0c-90.22,52.43-89.74,137.43,1.06,189.85
		c90.81,52.43,237.55,52.43,327.77,0C504.61,385.23,504.13,300.24,413.32,247.81z"/>
</g>
<g id="Shadows_1_">
	<path style="fill:#E0E0E0;" d="M446.11,340.02c6.7-3.87,17.52-3.87,24.18,0c6.65,3.87,6.62,10.14-0.08,14
		c-6.7,3.87-17.52,3.87-24.18,0C439.38,350.16,439.41,343.89,446.11,340.02z"/>
	<path style="fill:#E0E0E0;" d="M255.62,345.65l-12.39-16.84c-2.53-3.44-6.43-5.6-10.69-5.93l-18.26-1.4l-29.02-17.63l10.85-6.26
		c0.65-0.38,0.65-1.32-0.01-1.7l-4.51-2.57c-1.81-1.03-4.03-1.02-5.83,0.02L79.43,354.8c-0.65,0.38-0.65,1.32,0,1.69l4.4,2.54
		c1.81,1.05,4.05,1.05,5.87,0l46.16-26.66l28.62,16.42l3.74,10.52c2.36,6.62,8.63,11.05,15.66,11.05h26.7l18.12,10.46l43.78-25.44
		L255.62,345.65z"/>
	<path style="fill:#E0E0E0;" d="M418.52,330.11c-28.94-16.71-75.71-16.71-104.47,0c-25.41,14.76-28.23,37.63-8.58,54.28
		c-15.85-0.98-32.28,2.04-44.39,9.07c-21.25,12.35-21.14,32.37,0.25,44.72c21.39,12.35,55.95,12.35,77.2,0
		c16.91-9.82,20.27-24.5,10.18-36.31c24.36,3.52,51.18-0.22,70.15-11.25C447.62,373.92,447.47,346.83,418.52,330.11z"/>
	<path style="fill:#E0E0E0;" d="M82.58,376.23c-7.62-4.4-19.94-4.4-27.51,0c-7.57,4.4-7.53,11.54,0.09,15.94
		c7.62,4.4,19.94,4.4,27.51,0C90.25,387.77,90.21,380.63,82.58,376.23z"/>
</g>
<g id="Windows">
	<g>
		<g>
			<polygon style="fill:#F0F0F0;" points="156.77,31.94 162.12,28.88 162.45,145.82 162.44,145.83 119.32,170.45 119.3,164.33 
				118.98,53.51 			"/>
			<polygon style="opacity:0.1;" points="157.09,142.75 156.77,31.94 162.12,28.88 162.45,145.82 162.44,145.83 157.07,142.76 			
				"/>
			<polygon style="opacity:0.2;" points="119.3,164.33 157.07,142.76 162.44,145.83 119.32,170.45 			"/>
		</g>
		<g>
			<polygon style="fill:#F0F0F0;" points="97.76,65.63 103.11,62.57 103.44,179.51 103.43,179.52 60.31,204.14 60.29,198.02 
				59.97,87.2 			"/>
			<polygon style="opacity:0.1;" points="98.08,176.44 97.76,65.63 103.11,62.57 103.44,179.51 103.43,179.52 98.06,176.45 			"/>
			<polygon style="opacity:0.2;" points="60.29,198.02 98.06,176.45 103.43,179.52 60.31,204.14 			"/>
		</g>
	</g>
</g>
<g id="Clock">
	<g>
		<path style="fill:none;" d="M293.85,57.01C293.85,57.01,293.86,57.01,293.85,57.01c-0.11-0.08-0.21-0.17-0.32-0.25c0,0,0,0,0,0
			C293.64,56.85,293.75,56.93,293.85,57.01z"/>
		<path style="fill:none;" d="M295.64,58.5c-0.02-0.02-0.04-0.04-0.06-0.05C295.6,58.47,295.62,58.48,295.64,58.5
			C295.64,58.5,295.64,58.5,295.64,58.5z"/>
		<path style="fill:none;" d="M283.02,51.52c-0.15-0.03-0.3-0.06-0.45-0.08c0.14,0.03,0.29,0.05,0.43,0.08
			C283,51.51,283.01,51.52,283.02,51.52z"/>
		<path style="fill:none;" d="M284.05,51.77c-0.14-0.04-0.27-0.07-0.41-0.1c0.13,0.03,0.26,0.06,0.39,0.1
			C284.04,51.77,284.04,51.77,284.05,51.77z"/>
		<path style="fill:none;" d="M288.36,53.47c-0.01-0.01-0.03-0.01-0.04-0.02C288.34,53.46,288.35,53.46,288.36,53.47
			C288.36,53.47,288.36,53.47,288.36,53.47z"/>
		<path style="fill:none;" d="M302.38,106.62c0.29-0.09,0.57-0.19,0.84-0.3C302.95,106.43,302.67,106.53,302.38,106.62z"/>
		<path style="fill:none;" d="M305.67,70.94C305.67,70.94,305.67,70.94,305.67,70.94c-0.06-0.1-0.13-0.21-0.19-0.31c0,0,0,0,0,0
			C305.55,70.73,305.61,70.84,305.67,70.94z"/>
		<path style="fill:none;" d="M304.57,69.13c-0.07-0.12-0.15-0.24-0.22-0.35c0,0,0,0,0,0C304.42,68.9,304.5,69.01,304.57,69.13z"/>
		<path style="fill:none;" d="M297.44,60.18c-0.06-0.06-0.13-0.12-0.19-0.19C297.31,60.06,297.37,60.12,297.44,60.18
			C297.44,60.18,297.44,60.18,297.44,60.18z"/>
		<polygon style="fill:none;" points="298.64,61.42 298.63,61.41 298.64,61.42 		"/>
		<path style="fill:none;" d="M301.63,64.94c-0.01-0.01-0.02-0.03-0.03-0.04c0,0,0,0,0,0C301.61,64.91,301.62,64.92,301.63,64.94z"
			/>
		<path style="fill:none;" d="M299.99,107.06c0.31-0.02,0.62-0.06,0.93-0.11C300.61,107,300.31,107.03,299.99,107.06z"/>
		<path style="fill:none;" d="M282.81,98.96c0.47,0.46,0.94,0.9,1.42,1.33C283.75,99.86,283.28,99.41,282.81,98.96z"/>
		<path style="fill:none;" d="M289.65,104.23c0.45,0.26,0.89,0.49,1.32,0.71C290.54,104.72,290.1,104.49,289.65,104.23z"/>
		<path style="fill:none;" d="M288.01,103.2c0.54,0.36,1.09,0.71,1.65,1.03C289.1,103.91,288.55,103.56,288.01,103.2z"/>
		<path style="fill:none;" d="M296.38,106.84c0.16,0.03,0.32,0.07,0.48,0.09C296.7,106.9,296.54,106.87,296.38,106.84z"/>
		<path style="fill:none;" d="M307.58,74.53c-0.02-0.04-0.04-0.09-0.07-0.13c0,0,0,0,0,0C307.54,74.44,307.56,74.49,307.58,74.53z"
			/>
		<path style="fill:none;" d="M277.62,51.3c-0.01,0-0.01,0-0.02,0C277.6,51.31,277.61,51.31,277.62,51.3
			C277.61,51.3,277.61,51.3,277.62,51.3z"/>
		<path style="fill:none;" d="M280.78,51.19c-0.1-0.01-0.19-0.01-0.28-0.02c0.08,0,0.15,0.01,0.23,0.01
			C280.74,51.19,280.76,51.19,280.78,51.19z"/>
		<path style="fill:none;" d="M278.86,51.17c0.01,0,0.01,0,0.02,0c-0.09,0.01-0.17,0.01-0.26,0.02c0.01,0,0.01,0,0.02,0
			C278.71,51.18,278.78,51.17,278.86,51.17z"/>
		<path style="fill:none;" d="M281.97,51.32c0.01,0,0.01,0,0.02,0c-0.16-0.02-0.32-0.04-0.48-0.06c0.14,0.02,0.28,0.03,0.42,0.05
			C281.95,51.32,281.96,51.32,281.97,51.32z"/>
		<path style="fill:none;" d="M276.17,51.62c0.01,0,0.02,0,0.03-0.01c-0.06,0.02-0.11,0.04-0.17,0.05c0.03-0.01,0.06-0.02,0.09-0.03
			C276.14,51.63,276.15,51.62,276.17,51.62z"/>
		<path style="fill:none;" d="M275.12,51.99c-0.05,0.02-0.11,0.04-0.16,0.07c0.05-0.02,0.09-0.04,0.14-0.06
			C275.11,51.99,275.12,51.99,275.12,51.99z"/>
		<path style="fill:none;" d="M291.87,55.56c-0.02-0.02-0.05-0.03-0.07-0.05C291.83,55.53,291.85,55.54,291.87,55.56L291.87,55.56z"
			/>
		<path style="fill:none;" d="M311.96,97.57c-0.04,0.22-0.07,0.44-0.11,0.65C311.89,98,311.92,97.78,311.96,97.57z"/>
		<path style="fill:none;" d="M311.45,99.81c-0.05,0.19-0.11,0.38-0.16,0.57C311.35,100.19,311.4,100,311.45,99.81z"/>
		<path style="fill:none;" d="M311.73,98.73c-0.05,0.2-0.09,0.4-0.14,0.6C311.64,99.13,311.69,98.93,311.73,98.73z"/>
		<path style="fill:none;" d="M310.74,101.82c-0.07,0.17-0.14,0.34-0.22,0.5C310.6,102.16,310.67,101.99,310.74,101.82z"/>
		<path style="fill:none;" d="M311.12,100.84c-0.06,0.18-0.12,0.36-0.19,0.53C311,101.2,311.06,101.02,311.12,100.84z"/>
		<path style="fill:none;" d="M310.31,102.74c-0.08,0.16-0.16,0.32-0.24,0.47C310.16,103.06,310.23,102.9,310.31,102.74z"/>
		<polygon style="fill:none;" points="310.18,80.91 310.18,80.9 310.18,80.91 		"/>
		<path style="fill:none;" d="M289.79,54.24c0.31,0.18,0.63,0.37,0.94,0.57C290.42,54.61,290.11,54.42,289.79,54.24z"/>
		<path style="fill:none;" d="M312.26,94.99c-0.02,0.29-0.03,0.57-0.06,0.85C312.22,95.56,312.24,95.28,312.26,94.99z"/>
		<path style="fill:none;" d="M312.14,96.31c-0.03,0.25-0.05,0.5-0.09,0.75C312.08,96.81,312.11,96.56,312.14,96.31z"/>
		<path style="fill:none;" d="M312.32,93.26c0,0.45-0.01,0.88-0.03,1.31C312.31,94.15,312.32,93.71,312.32,93.26z"/>
		<path style="fill:none;" d="M312.26,91.3c0-0.04-0.01-0.08-0.01-0.13C312.25,91.21,312.25,91.25,312.26,91.3L312.26,91.3z"/>
		<path style="fill:none;" d="M312.04,88.95c-0.01-0.08-0.02-0.16-0.03-0.25C312.02,88.78,312.03,88.87,312.04,88.95
			C312.04,88.95,312.04,88.95,312.04,88.95z"/>
		<path style="fill:none;" d="M307.81,106.18c0.11-0.11,0.22-0.22,0.33-0.34C308.03,105.95,307.92,106.07,307.81,106.18z"/>
		<path style="fill:none;" d="M311.55,85.99c-0.01-0.05-0.02-0.1-0.03-0.15C311.53,85.9,311.54,85.95,311.55,85.99
			C311.55,85.99,311.55,85.99,311.55,85.99z"/>
		<path style="fill:none;" d="M311.83,87.49C311.83,87.49,311.83,87.49,311.83,87.49c-0.03-0.2-0.07-0.41-0.11-0.61c0,0,0,0,0,0
			C311.76,87.09,311.79,87.29,311.83,87.49z"/>
		<path style="fill:none;" d="M309.83,103.6c-0.09,0.15-0.17,0.29-0.26,0.43C309.66,103.9,309.75,103.75,309.83,103.6z"/>
		<path style="fill:none;" d="M306.81,107.03c-0.12,0.09-0.25,0.19-0.37,0.28C306.56,107.22,306.68,107.12,306.81,107.03z"/>
		<path style="fill:none;" d="M308.75,105.15c-0.1,0.12-0.2,0.25-0.31,0.37C308.55,105.41,308.65,105.28,308.75,105.15z"/>
		<path style="fill:none;" d="M309.31,104.41c-0.09,0.13-0.19,0.27-0.28,0.4C309.13,104.68,309.22,104.54,309.31,104.41z"/>
		<path style="fill:none;" d="M307.49,106.46c-0.12,0.1-0.23,0.21-0.35,0.31C307.26,106.68,307.38,106.57,307.49,106.46z"/>
		<path style="fill:none;" d="M274.59,54.93c-0.11,0.07-0.23,0.14-0.34,0.21C274.37,55.07,274.48,55,274.59,54.93z"/>
		<path style="fill:none;" d="M271.45,81.43c-0.22-0.58-0.43-1.16-0.62-1.74C271.02,80.27,271.23,80.85,271.45,81.43
			C271.45,81.43,271.45,81.43,271.45,81.43z"/>
		<path style="fill:none;" d="M270.78,79.55C270.78,79.55,270.78,79.55,270.78,79.55c-0.2-0.6-0.38-1.2-0.55-1.8c0,0,0,0,0,0
			C270.4,78.35,270.58,78.95,270.78,79.55z"/>
		<path style="fill:none;" d="M306.46,103.73c-0.31,0.05-0.62,0.09-0.95,0.11c-0.07,0.01-0.14,0.01-0.2,0.02
			c-0.4,0.02-0.8,0.02-1.21,0.01c-0.09,0-0.19-0.01-0.28-0.01c-0.46-0.03-0.92-0.07-1.4-0.14c-0.31-0.05-0.63-0.11-0.95-0.18
			c-0.1-0.02-0.2-0.05-0.3-0.07c-0.22-0.05-0.43-0.1-0.66-0.16c-0.37-0.1-0.75-0.22-1.13-0.35c-0.08-0.03-0.15-0.06-0.23-0.09
			c-0.31-0.11-0.61-0.22-0.92-0.35c-0.12-0.05-0.24-0.1-0.35-0.15c-0.33-0.14-0.66-0.29-0.99-0.45c-0.13-0.06-0.25-0.12-0.38-0.19
			c-0.44-0.22-0.88-0.45-1.32-0.71c-0.56-0.32-1.1-0.67-1.65-1.03c-0.09-0.06-0.19-0.12-0.28-0.18c-0.52-0.35-1.03-0.73-1.54-1.12
			c-0.1-0.08-0.2-0.15-0.29-0.23c-0.51-0.4-1.02-0.82-1.52-1.26c-0.04-0.04-0.09-0.08-0.13-0.12c-0.48-0.43-0.96-0.87-1.43-1.33
			c-0.08-0.07-0.15-0.15-0.23-0.22c-0.36-0.36-0.72-0.72-1.07-1.09c-0.02-0.02-0.04-0.04-0.06-0.06c-0.33-0.35-0.66-0.72-0.98-1.08
			c-0.07-0.08-0.14-0.16-0.21-0.24c-0.53-0.61-1.04-1.23-1.54-1.87c-0.05-0.07-0.11-0.14-0.16-0.21c-0.4-0.52-0.78-1.04-1.16-1.58
			c-0.05-0.08-0.11-0.15-0.17-0.23c-0.36-0.52-0.71-1.05-1.06-1.58c-0.08-0.13-0.16-0.25-0.24-0.38c-0.28-0.44-0.55-0.88-0.81-1.33
			c-0.06-0.1-0.11-0.19-0.17-0.29c-0.3-0.51-0.59-1.03-0.87-1.55c-0.07-0.13-0.13-0.26-0.2-0.39c-0.22-0.42-0.43-0.84-0.64-1.26
			c-0.07-0.14-0.14-0.28-0.2-0.42c-0.25-0.53-0.5-1.07-0.73-1.6c-0.03-0.08-0.06-0.15-0.1-0.23c-0.21-0.48-0.41-0.97-0.6-1.46
			c-0.06-0.15-0.11-0.29-0.17-0.44c-0.22-0.58-0.43-1.16-0.62-1.74c-0.02-0.05-0.03-0.1-0.05-0.14c-0.2-0.6-0.38-1.2-0.55-1.8
			c-0.03-0.12-0.07-0.23-0.1-0.35c-0.19-0.7-0.36-1.39-0.51-2.09c-0.03-0.15-0.07-0.3-0.1-0.46c-0.06-0.27-0.11-0.54-0.16-0.82
			c-0.03-0.19-0.07-0.38-0.1-0.57c-0.05-0.28-0.09-0.56-0.13-0.84c-0.02-0.17-0.05-0.34-0.07-0.5c-0.08-0.6-0.13-1.2-0.18-1.79
			c-0.01-0.13-0.02-0.25-0.02-0.38c-0.04-0.61-0.06-1.22-0.06-1.82c0.01-4.96,1.34-8.81,3.59-11.35c3.37-0.72,7.45,0.07,11.85,2.61
			c11.55,6.67,20.88,22.82,20.84,36.1c-0.01,4.95-1.33,8.79-3.58,11.33c-0.1,0.02-0.2,0.05-0.3,0.07
			C306.65,103.7,306.56,103.71,306.46,103.73z"/>
		<path style="fill:none;" d="M275.94,90.39c-0.28-0.44-0.55-0.88-0.81-1.33C275.39,89.51,275.66,89.95,275.94,90.39
			C275.94,90.39,275.94,90.39,275.94,90.39z"/>
		<path style="fill:none;" d="M280.27,96.25c-0.52-0.61-1.04-1.23-1.54-1.87C279.23,95.02,279.74,95.64,280.27,96.25
			C280.27,96.25,280.27,96.25,280.27,96.25z"/>
		<path style="fill:none;" d="M273.25,85.58c0.21,0.42,0.42,0.84,0.63,1.25C273.67,86.42,273.46,86,273.25,85.58z"/>
		<path style="fill:none;" d="M274.96,88.78C274.96,88.78,274.96,88.78,274.96,88.78c-0.3-0.51-0.59-1.03-0.87-1.55h0
			C274.37,87.75,274.66,88.27,274.96,88.78z"/>
		<path style="fill:none;" d="M304.28,105.82c0.02-0.01,0.04-0.02,0.06-0.03c-0.28,0.15-0.56,0.29-0.85,0.42
			c0.01,0,0.01-0.01,0.02-0.01C303.77,106.08,304.03,105.96,304.28,105.82z"/>
		<path style="fill:none;" d="M277.24,92.36c-0.36-0.52-0.71-1.05-1.06-1.58C276.53,91.31,276.88,91.84,277.24,92.36L277.24,92.36z"
			/>
		<path style="fill:none;" d="M281.45,97.57c-0.33-0.35-0.65-0.71-0.97-1.07l0,0C280.8,96.86,281.12,97.22,281.45,97.57z"/>
		<path style="fill:none;" d="M285.89,101.67c-0.54-0.43-1.08-0.87-1.61-1.34c0.03,0.02,0.05,0.05,0.08,0.07
			C284.87,100.84,285.38,101.26,285.89,101.67z"/>
		<path style="fill:none;" d="M287.73,103.02c0.07,0.05,0.14,0.09,0.2,0.14c-0.65-0.44-1.3-0.91-1.93-1.4
			c0.06,0.05,0.13,0.1,0.19,0.15C286.7,102.29,287.21,102.66,287.73,103.02z"/>
		<path style="fill:none;" d="M304.45,105.74C304.45,105.73,304.46,105.73,304.45,105.74C304.46,105.73,304.45,105.73,304.45,105.74
			z"/>
		<path style="fill:none;" d="M282.58,98.73c-0.36-0.36-0.72-0.72-1.07-1.09C281.86,98.01,282.22,98.38,282.58,98.73z"/>
		<path style="fill:none;" d="M292.35,105.58C292.35,105.59,292.35,105.59,292.35,105.58c-0.4-0.17-0.8-0.36-1.21-0.56
			c0.07,0.04,0.15,0.07,0.22,0.11C291.69,105.29,292.02,105.44,292.35,105.58z"/>
		<path style="fill:none;" d="M293.63,106.09c0.08,0.03,0.15,0.06,0.23,0.09c0.38,0.13,0.75,0.24,1.11,0.34
			c-0.74-0.21-1.5-0.47-2.28-0.78c0,0,0.01,0,0.01,0C293.01,105.86,293.32,105.98,293.63,106.09z"/>
		<path style="fill:none;" d="M298.28,107.07c-0.22-0.01-0.44-0.03-0.67-0.05C297.84,107.04,298.06,107.06,298.28,107.07
			C298.28,107.07,298.28,107.07,298.28,107.07z"/>
		<path style="fill:none;" d="M299.75,107.08c-0.39,0.02-0.8,0.02-1.21,0.01c0.01,0,0.01,0,0.02,0
			C298.96,107.1,299.36,107.1,299.75,107.08z"/>
		<path style="fill:none;" d="M302.23,106.67c-0.34,0.1-0.68,0.17-1.04,0.24c0.01,0,0.01,0,0.02,0
			C301.56,106.84,301.9,106.76,302.23,106.67z"/>
		<path style="fill:none;" d="M295.92,106.75c-0.12-0.03-0.24-0.06-0.36-0.09c0.03,0.01,0.06,0.01,0.08,0.02
			C295.73,106.7,295.83,106.73,295.92,106.75z"/>
		<path style="fill:none;" d="M278.57,94.16C278.57,94.16,278.57,94.17,278.57,94.16c-0.4-0.51-0.78-1.04-1.16-1.57c0,0,0,0,0,0
			C277.79,93.13,278.17,93.65,278.57,94.16z"/>
		<path style="fill:none;" d="M271.59,57.83c-0.08,0.11-0.16,0.22-0.24,0.34C271.43,58.05,271.51,57.95,271.59,57.83z"/>
		<path style="fill:none;" d="M272.12,57.14c-0.09,0.11-0.18,0.21-0.26,0.32C271.94,57.35,272.03,57.25,272.12,57.14z"/>
		<path style="fill:none;" d="M271.11,58.58c-0.07,0.12-0.15,0.24-0.22,0.36C270.96,58.82,271.04,58.7,271.11,58.58z"/>
		<path style="fill:none;" d="M273.28,55.92c-0.1,0.09-0.2,0.18-0.3,0.27C273.08,56.1,273.18,56.01,273.28,55.92z"/>
		<path style="fill:none;" d="M273.92,55.4c-0.11,0.08-0.22,0.16-0.32,0.24C273.71,55.56,273.81,55.48,273.92,55.4z"/>
		<path style="fill:none;" d="M272.68,56.5c-0.09,0.1-0.19,0.19-0.28,0.29C272.49,56.69,272.59,56.6,272.68,56.5z"/>
		<path style="fill:none;" d="M271.62,81.87c0.19,0.49,0.39,0.97,0.6,1.46C272.01,82.84,271.81,82.36,271.62,81.87z"/>
		<path style="fill:none;" d="M272.31,83.56c0.23,0.54,0.48,1.07,0.73,1.6C272.79,84.63,272.55,84.1,272.31,83.56z"/>
		<path style="fill:#EBEBEB;" d="M281.45,97.57c-0.33-0.35-0.65-0.71-0.97-1.07l0,0c-0.07-0.08-0.14-0.16-0.21-0.25c0,0,0,0,0,0
			c-0.52-0.61-1.04-1.23-1.54-1.87c-0.05-0.07-0.11-0.14-0.16-0.21c0,0,0,0,0,0c-0.4-0.51-0.78-1.04-1.16-1.57c0,0,0,0,0,0
			c-0.06-0.08-0.11-0.16-0.17-0.23l0,0c-0.36-0.52-0.71-1.05-1.06-1.58c-0.08-0.13-0.16-0.26-0.24-0.39c0,0,0,0,0,0
			c-0.28-0.44-0.55-0.88-0.81-1.33c-0.06-0.09-0.11-0.19-0.17-0.28c0,0,0,0,0,0c-0.3-0.51-0.59-1.03-0.87-1.55h0
			c-0.07-0.13-0.14-0.26-0.2-0.39c-0.22-0.42-0.43-0.83-0.63-1.25c-0.07-0.14-0.14-0.28-0.21-0.42c-0.25-0.53-0.5-1.07-0.73-1.6
			c-0.03-0.08-0.06-0.16-0.1-0.23c-0.21-0.48-0.41-0.97-0.6-1.46c-0.06-0.15-0.11-0.29-0.17-0.44c0,0,0,0,0,0
			c-0.22-0.58-0.43-1.16-0.62-1.74c-0.02-0.05-0.03-0.09-0.05-0.14c0,0,0,0,0,0c-0.2-0.6-0.38-1.2-0.55-1.8c0,0,0,0,0,0
			c-0.03-0.12-0.07-0.23-0.1-0.35c-0.19-0.7-0.36-1.39-0.51-2.09c0,0,0,0,0,0c-0.03-0.15-0.07-0.31-0.1-0.46
			c-0.06-0.27-0.11-0.54-0.16-0.81c-0.03-0.17-0.06-0.35-0.09-0.52c0-0.02-0.01-0.03-0.01-0.05c-0.05-0.28-0.09-0.56-0.13-0.84
			c-0.02-0.17-0.05-0.33-0.07-0.5c-0.08-0.6-0.13-1.2-0.18-1.79c-0.01-0.13-0.02-0.25-0.02-0.38c-0.04-0.61-0.06-1.22-0.06-1.81
			c0-0.41,0.01-0.82,0.03-1.22c0.01-0.15,0.02-0.3,0.03-0.44c0.02-0.24,0.03-0.49,0.05-0.73c0.01-0.15,0.04-0.3,0.05-0.45
			c0.03-0.23,0.05-0.45,0.08-0.67c0.02-0.16,0.05-0.31,0.08-0.47c0.03-0.2,0.07-0.41,0.11-0.61c0.03-0.16,0.07-0.31,0.11-0.46
			c0.04-0.19,0.08-0.38,0.13-0.56c0.04-0.15,0.09-0.3,0.13-0.45c0.05-0.17,0.1-0.35,0.15-0.52c0.05-0.15,0.1-0.29,0.15-0.44
			c0.06-0.16,0.11-0.33,0.17-0.49c0.06-0.14,0.12-0.28,0.18-0.41c0.07-0.15,0.13-0.31,0.2-0.46c0.06-0.13,0.13-0.26,0.2-0.39
			c0.07-0.15,0.14-0.29,0.22-0.43c0.07-0.12,0.14-0.24,0.22-0.36c0.08-0.14,0.16-0.28,0.25-0.41c0.08-0.12,0.16-0.23,0.24-0.34
			c0.09-0.13,0.17-0.25,0.27-0.38c0.08-0.11,0.17-0.21,0.26-0.32c0.09-0.12,0.19-0.23,0.28-0.34c0.09-0.1,0.19-0.19,0.28-0.29
			c0.1-0.1,0.2-0.21,0.3-0.31c0.1-0.09,0.2-0.18,0.3-0.27c0.11-0.09,0.21-0.19,0.32-0.28c0.1-0.09,0.21-0.16,0.32-0.24
			c0.11-0.08,0.22-0.17,0.34-0.25c0.11-0.08,0.22-0.14,0.34-0.21c1.01-0.64,2.13-1.1,3.34-1.36c-2.25,2.53-3.57,6.39-3.59,11.35
			c0,0.6,0.02,1.21,0.06,1.82c0.01,0.13,0.01,0.25,0.02,0.38c0.04,0.59,0.1,1.19,0.18,1.79c0.02,0.17,0.05,0.34,0.07,0.5
			c0.04,0.28,0.08,0.56,0.13,0.84c0.03,0.19,0.07,0.38,0.1,0.57c0.05,0.27,0.1,0.54,0.16,0.82c0.03,0.15,0.06,0.3,0.1,0.46
			c0.15,0.7,0.32,1.39,0.51,2.09c0.03,0.12,0.07,0.23,0.1,0.35c0.17,0.6,0.35,1.2,0.55,1.8c0.02,0.05,0.03,0.1,0.05,0.14
			c0.19,0.58,0.4,1.16,0.62,1.74c0.06,0.15,0.11,0.29,0.17,0.44c0.19,0.49,0.39,0.97,0.6,1.46c0.03,0.08,0.06,0.16,0.1,0.23
			c0.23,0.54,0.48,1.07,0.73,1.6c0.07,0.14,0.14,0.28,0.2,0.42c0.21,0.42,0.42,0.84,0.64,1.26c0.07,0.13,0.13,0.26,0.2,0.39
			c0.28,0.52,0.57,1.04,0.87,1.55c0.06,0.1,0.11,0.19,0.17,0.29c0.26,0.45,0.54,0.89,0.81,1.33c0.08,0.13,0.16,0.26,0.24,0.38
			c0.34,0.53,0.7,1.06,1.06,1.58c0.05,0.08,0.11,0.15,0.17,0.23c0.38,0.53,0.77,1.06,1.16,1.58c0.05,0.07,0.11,0.14,0.16,0.21
			c0.5,0.64,1.01,1.26,1.54,1.87c0.07,0.08,0.14,0.16,0.21,0.24c0.32,0.37,0.65,0.73,0.98,1.08c0.02,0.02,0.04,0.04,0.06,0.06
			c0.35,0.37,0.71,0.74,1.07,1.09c0.08,0.08,0.15,0.15,0.23,0.22c0.47,0.46,0.94,0.9,1.43,1.33c0.04,0.04,0.09,0.08,0.13,0.12
			c0.5,0.44,1.01,0.86,1.52,1.26c0.1,0.08,0.2,0.15,0.29,0.23c0.51,0.39,1.02,0.76,1.54,1.12c0.09,0.06,0.19,0.12,0.28,0.18
			c0.54,0.36,1.09,0.71,1.65,1.03c0.45,0.26,0.89,0.49,1.32,0.71c0.13,0.06,0.25,0.12,0.38,0.19c0.33,0.16,0.67,0.31,0.99,0.45
			c0.12,0.05,0.24,0.1,0.35,0.15c0.31,0.13,0.62,0.24,0.92,0.35c0.08,0.03,0.15,0.06,0.23,0.09c0.38,0.13,0.76,0.25,1.13,0.35
			c0.22,0.06,0.44,0.11,0.66,0.16c0.1,0.02,0.2,0.05,0.3,0.07c0.32,0.07,0.63,0.13,0.95,0.18c0.48,0.07,0.94,0.11,1.4,0.14
			c0.09,0.01,0.19,0.01,0.28,0.01c0.41,0.01,0.82,0.01,1.21-0.01c0.07,0,0.14-0.01,0.2-0.02c0.32-0.02,0.64-0.06,0.95-0.11
			c0.1-0.02,0.19-0.03,0.29-0.05c0.1-0.02,0.2-0.05,0.3-0.07c-0.76,0.86-1.63,1.57-2.59,2.12c0,0-0.01,0-0.01,0
			c-0.03,0.02-0.07,0.04-0.11,0.05c-0.02,0.01-0.04,0.02-0.06,0.03c-0.25,0.14-0.51,0.26-0.77,0.38c-0.01,0-0.01,0.01-0.02,0.01
			c-0.09,0.04-0.18,0.08-0.27,0.11c-0.27,0.11-0.55,0.21-0.84,0.3c-0.05,0.02-0.1,0.04-0.16,0.05c-0.33,0.09-0.67,0.17-1.02,0.23
			c-0.01,0-0.01,0-0.02,0c-0.09,0.02-0.18,0.03-0.27,0.04c-0.3,0.05-0.61,0.08-0.93,0.11c-0.08,0.01-0.16,0.02-0.24,0.02
			c-0.39,0.02-0.79,0.02-1.19,0.01c-0.01,0-0.01,0-0.02,0c-0.09,0-0.17-0.01-0.26-0.01c0,0,0,0,0,0c-0.22-0.01-0.44-0.03-0.66-0.05
			c-0.25-0.03-0.5-0.05-0.75-0.09c-0.16-0.02-0.32-0.06-0.48-0.09c-0.15-0.03-0.31-0.05-0.46-0.09c-0.09-0.02-0.19-0.05-0.28-0.07
			c-0.03-0.01-0.06-0.01-0.08-0.02c-0.19-0.05-0.39-0.09-0.59-0.15c-0.37-0.1-0.74-0.21-1.11-0.34c-0.08-0.03-0.15-0.06-0.23-0.09
			c-0.31-0.11-0.61-0.22-0.92-0.35c0,0-0.01,0-0.01,0c-0.11-0.05-0.23-0.1-0.34-0.15c0,0,0,0,0,0c-0.33-0.14-0.66-0.29-1-0.45
			c-0.07-0.04-0.15-0.07-0.22-0.11c-0.05-0.03-0.11-0.05-0.16-0.08c-0.44-0.22-0.88-0.45-1.32-0.71c-0.55-0.32-1.1-0.67-1.65-1.03
			c-0.02-0.02-0.05-0.03-0.07-0.05c-0.07-0.04-0.14-0.09-0.2-0.14c-0.52-0.35-1.03-0.73-1.54-1.12c-0.06-0.05-0.13-0.1-0.19-0.15
			c-0.03-0.03-0.07-0.05-0.1-0.08c-0.51-0.4-1.02-0.82-1.52-1.26c-0.03-0.02-0.05-0.05-0.08-0.07c-0.02-0.02-0.03-0.03-0.05-0.05
			c-0.48-0.43-0.96-0.87-1.42-1.33c-0.08-0.08-0.16-0.15-0.23-0.22c-0.36-0.36-0.72-0.72-1.07-1.09
			C281.49,97.62,281.47,97.59,281.45,97.57z"/>
		<g>
			<g>
				<polygon style="fill:#FFFFFF;" points="306.7,86.16 306.7,87.45 310.33,89.54 310.33,88.26 				"/>
			</g>
			<g>
				<polygon style="fill:#FFFFFF;" points="277.35,59.04 276.79,59.82 279.93,63.73 280.49,62.94 				"/>
			</g>
			<g>
				<path style="fill:#E0E0E0;" d="M313.4,90.67c-0.04,13.27-9.43,18.61-20.98,11.95c-11.55-6.67-20.88-22.82-20.84-36.09
					c0.04-13.27,9.43-18.62,20.98-11.95C304.1,61.24,313.44,77.4,313.4,90.67z M283.04,77.86c0.09,0.29,0.29,0.56,0.51,0.68
					c0.08,0.04,0.15,0.07,0.22,0.08l8.88,0.7c0.14,0.03,0.26-0.01,0.33-0.13l5.81-9.85c0.14-0.24,0.03-0.69-0.25-1.01
					c-0.08-0.09-0.16-0.16-0.25-0.21c-0.2-0.12-0.4-0.1-0.5,0.07l-5.72,9.69l-8.75-0.69C283.06,77.16,282.92,77.46,283.04,77.86
					 M300.12,69.16l1.83-2.57l-0.97-1.2l-1.83,2.57L300.12,69.16 M300.87,101.54l0.97-0.08l-1.81-4.66l-0.97,0.08L300.87,101.54
					 M277.29,80.65l3.15-0.27l-0.55-1.43l-3.15,0.27L277.29,80.65 M307.63,98.17l0.56-0.79l-3.14-3.9l-0.56,0.79L307.63,98.17
					 M277.35,59.04l-0.56,0.79l3.14,3.9l0.56-0.79L277.35,59.04 M305.1,78.26l3.15-0.27l-0.55-1.43l-3.15,0.26L305.1,78.26
					 M284.1,55.66l-0.97,0.08l1.81,4.66l0.97-0.08L284.1,55.66 M284,91.8l1.83-2.57l-0.96-1.2l-1.83,2.57L284,91.8 M278.28,71.04
					l0-1.29l-3.63-2.1l0,1.29L278.28,71.04 M310.33,88.26l-3.63-2.09l0,1.29l3.63,2.09L310.33,88.26 M291.88,98.78l1.11,0.64
					l0.01-4.17l-1.11-0.64L291.88,98.78 M293.11,58.42l-1.11-0.64l-0.01,4.17l1.11,0.64L293.11,58.42"/>
			</g>
			<g>
				<polygon style="fill:#FFFFFF;" points="291.99,57.78 291.98,61.95 293.09,62.6 293.11,58.42 				"/>
			</g>
			<g>
				<polygon style="fill:#FFFFFF;" points="300.98,65.4 299.15,67.96 300.12,69.16 301.94,66.6 				"/>
			</g>
			<g>
				<polygon style="fill:#FFFFFF;" points="307.69,76.56 304.54,76.82 305.1,78.26 308.25,77.99 				"/>
			</g>
			<g>
				<polygon style="fill:#FFFFFF;" points="305.05,93.47 304.49,94.26 307.63,98.17 308.19,97.38 				"/>
			</g>
			<g>
				<polygon style="fill:#FFFFFF;" points="300.04,96.8 299.07,96.88 300.87,101.54 301.84,101.46 				"/>
			</g>
			<g>
				<polygon style="fill:#FFFFFF;" points="291.89,94.6 291.88,98.78 292.99,99.42 293,95.25 				"/>
			</g>
			<g>
				<polygon style="fill:#FFFFFF;" points="284.87,88.04 283.04,90.6 284,91.8 285.83,89.23 				"/>
			</g>
			<g>
				<polygon style="fill:#FFFFFF;" points="279.89,78.94 276.73,79.21 277.29,80.65 280.44,80.38 				"/>
			</g>
			<g>
				<polygon style="fill:#FFFFFF;" points="274.65,67.66 274.65,68.94 278.28,71.04 278.28,69.75 				"/>
			</g>
			<g>
				<polygon style="fill:#FFFFFF;" points="284.1,55.66 283.14,55.74 284.94,60.4 285.91,60.32 				"/>
			</g>
			<g>
				<path style="fill:#FFFFFF;" d="M292.49,77.96c-0.07-0.04-0.15-0.07-0.22-0.07l-0.19-0.01l-8.75-0.69
					c-0.28-0.02-0.41,0.28-0.29,0.67c0.09,0.29,0.29,0.56,0.51,0.68c0.08,0.04,0.15,0.07,0.22,0.08l8.88,0.7l0.05,0
					c0.28,0.02,0.41-0.28,0.29-0.67C292.91,78.35,292.71,78.08,292.49,77.96z"/>
			</g>
			<g>
				<path style="fill:#F5F5F5;" d="M298.3,68.11c-0.2-0.12-0.4-0.1-0.5,0.07l-5.72,9.69l0.19,0.01c0.07,0,0.15,0.03,0.22,0.07
					c0.21,0.12,0.42,0.38,0.51,0.68c0.12,0.4-0.01,0.7-0.29,0.67l-0.05,0c0.14,0.03,0.26-0.01,0.33-0.13l5.81-9.85
					c0.14-0.24,0.03-0.69-0.25-1.01C298.47,68.23,298.39,68.16,298.3,68.11z"/>
			</g>
		</g>
		<path style="fill:#EBEBEB;" d="M306.81,107.03c0.11-0.08,0.23-0.17,0.34-0.26c0.12-0.1,0.23-0.2,0.35-0.31
			c0.11-0.1,0.22-0.19,0.32-0.29c0.11-0.11,0.22-0.22,0.33-0.34c0.1-0.11,0.2-0.21,0.3-0.32c0.11-0.12,0.2-0.25,0.31-0.37
			c0.09-0.11,0.19-0.23,0.28-0.34c0.1-0.13,0.19-0.27,0.28-0.4c0.09-0.12,0.18-0.24,0.26-0.37c0.09-0.14,0.17-0.29,0.26-0.43
			c0.08-0.13,0.16-0.26,0.24-0.4c0.08-0.15,0.16-0.31,0.24-0.47c0.07-0.14,0.15-0.28,0.21-0.42c0.08-0.16,0.14-0.33,0.22-0.5
			c0.06-0.15,0.13-0.29,0.19-0.44c0.07-0.17,0.13-0.36,0.19-0.53c0.05-0.15,0.11-0.31,0.17-0.46c0.06-0.18,0.11-0.38,0.16-0.57
			c0.05-0.16,0.1-0.32,0.14-0.49c0.05-0.19,0.09-0.4,0.14-0.6c0.04-0.17,0.08-0.34,0.12-0.51c0.04-0.21,0.08-0.43,0.11-0.65
			c0.03-0.17,0.06-0.34,0.09-0.51c0.04-0.24,0.06-0.5,0.09-0.75c0.02-0.16,0.04-0.31,0.06-0.47c0.03-0.28,0.04-0.57,0.06-0.85
			c0.01-0.14,0.02-0.27,0.03-0.41c0.02-0.43,0.03-0.87,0.03-1.31c0-0.65-0.02-1.3-0.06-1.96l0,0c0-0.04-0.01-0.08-0.01-0.13
			c-0.05-0.74-0.11-1.48-0.21-2.22c0,0,0,0,0,0c-0.01-0.08-0.02-0.16-0.03-0.25c-0.05-0.4-0.11-0.8-0.18-1.21c0,0,0,0,0,0
			c-0.03-0.2-0.07-0.41-0.11-0.61c0,0,0,0,0,0c-0.05-0.29-0.11-0.59-0.17-0.89c0,0,0,0,0,0c-0.01-0.05-0.02-0.1-0.03-0.15
			c-0.34-1.64-0.79-3.29-1.33-4.94l0,0c0,0,0,0,0,0c-0.71-2.15-1.59-4.28-2.6-6.37c-0.02-0.04-0.04-0.09-0.07-0.13c0,0,0,0,0,0
			c-0.57-1.17-1.19-2.32-1.84-3.46c0,0,0,0,0,0c-0.06-0.11-0.12-0.21-0.19-0.31c0,0,0,0,0,0c-0.3-0.5-0.6-1-0.92-1.5
			c-0.07-0.12-0.15-0.24-0.22-0.35c0,0,0,0,0,0c-0.85-1.33-1.76-2.61-2.72-3.84c-0.01-0.01-0.02-0.03-0.03-0.04c0,0,0,0,0,0
			c-0.94-1.21-1.93-2.37-2.96-3.47c0,0,0,0,0,0c0,0,0-0.01-0.01-0.01c-0.39-0.42-0.79-0.83-1.2-1.23c0,0,0,0,0,0
			c-0.06-0.06-0.13-0.13-0.19-0.19c-0.53-0.51-1.06-1.01-1.6-1.49c0,0,0,0,0,0c-0.02-0.02-0.04-0.04-0.06-0.05
			c-0.57-0.5-1.14-0.98-1.73-1.44c0,0,0,0,0,0c-0.11-0.08-0.21-0.17-0.32-0.25c0,0,0,0,0,0c-0.55-0.42-1.1-0.83-1.66-1.21h0
			c-0.02-0.02-0.05-0.03-0.07-0.05c-0.36-0.24-0.71-0.48-1.07-0.7c-0.31-0.2-0.62-0.39-0.94-0.57c-0.48-0.28-0.96-0.53-1.43-0.77
			c0,0,0,0,0,0c-0.01-0.01-0.03-0.01-0.04-0.02c-1.47-0.74-2.9-1.3-4.28-1.68c0,0-0.01,0-0.02,0c-0.13-0.04-0.26-0.07-0.39-0.1
			c-0.21-0.05-0.41-0.11-0.62-0.15c-0.01,0-0.01,0-0.02-0.01c-0.14-0.03-0.29-0.05-0.43-0.08c-0.19-0.04-0.38-0.08-0.57-0.11
			c-0.01,0-0.01,0-0.02,0c-0.01,0-0.02,0-0.03,0c-0.14-0.02-0.28-0.03-0.42-0.05c-0.25-0.03-0.5-0.06-0.74-0.08
			c-0.02,0-0.04,0-0.06,0c-0.08-0.01-0.15-0.01-0.23-0.01c-0.55-0.03-1.09-0.04-1.61-0.01c-0.01,0-0.01,0-0.02,0
			c-0.07,0-0.15,0.01-0.22,0.02c-0.01,0-0.01,0-0.02,0c-0.34,0.03-0.67,0.07-1,0.12c0,0,0,0,0,0c-0.01,0-0.01,0-0.02,0
			c-0.48,0.08-0.94,0.17-1.39,0.3c-0.01,0-0.02,0-0.03,0.01c-0.02,0.01-0.03,0.01-0.05,0.02c-0.03,0.01-0.06,0.02-0.09,0.03
			c-0.31,0.09-0.61,0.2-0.91,0.32c-0.01,0-0.01,0-0.02,0.01c-0.05,0.02-0.09,0.04-0.14,0.06c-0.42,0.17-0.82,0.37-1.21,0.59
			c-0.01,0.01-0.03,0.01-0.04,0.02l5.54-3.22c0.04-0.02,0.08-0.05,0.12-0.07c0.05-0.03,0.1-0.05,0.15-0.07
			c0.27-0.15,0.55-0.28,0.83-0.41c0.05-0.02,0.1-0.05,0.16-0.08c0.04-0.02,0.09-0.03,0.13-0.05c0.33-0.13,0.67-0.26,1.02-0.36
			c0.01,0,0.03-0.01,0.04-0.02c0,0,0.01,0,0.01,0c0.37-0.11,0.75-0.19,1.13-0.26c0.04-0.01,0.09-0.02,0.13-0.03
			c0.06-0.01,0.12-0.01,0.18-0.02c0.33-0.05,0.67-0.09,1.02-0.12c0.06,0,0.11-0.02,0.16-0.02c0.02,0,0.04,0,0.06,0
			c0.43-0.03,0.87-0.03,1.31-0.01c0.04,0,0.08,0,0.13,0c0.14,0.01,0.28,0.02,0.43,0.03c0.1,0.01,0.2,0.01,0.3,0.02
			c0.3,0.03,0.61,0.06,0.92,0.11c0.01,0,0.02,0,0.03,0c0,0,0,0,0,0c0.34,0.05,0.68,0.12,1.02,0.19c0.11,0.02,0.22,0.05,0.32,0.08
			c0.21,0.05,0.43,0.1,0.65,0.16c0.02,0.01,0.04,0.01,0.06,0.02c0.4,0.11,0.81,0.24,1.22,0.38c0.08,0.03,0.17,0.06,0.25,0.09
			c0.33,0.12,0.66,0.24,1,0.38c0.04,0.02,0.09,0.03,0.13,0.05c0.08,0.03,0.17,0.08,0.25,0.11c0.36,0.15,0.71,0.32,1.08,0.49
			c0.14,0.07,0.27,0.13,0.41,0.2c0.47,0.24,0.95,0.49,1.43,0.77c0.6,0.35,1.19,0.72,1.78,1.12c0.1,0.07,0.2,0.13,0.3,0.2
			c0.56,0.38,1.11,0.79,1.66,1.21c0.11,0.08,0.21,0.17,0.32,0.25c0.56,0.44,1.11,0.89,1.65,1.37c0.05,0.04,0.09,0.08,0.14,0.13
			c0.52,0.46,1.04,0.94,1.54,1.44c0.05,0.05,0.1,0.09,0.15,0.14c0.03,0.03,0.06,0.06,0.09,0.1c0.39,0.39,0.77,0.78,1.15,1.18
			c0.02,0.02,0.04,0.04,0.06,0.06c0.36,0.38,0.71,0.78,1.06,1.18c0.03,0.04,0.07,0.07,0.1,0.11c0.04,0.05,0.08,0.1,0.12,0.15
			c0.57,0.66,1.12,1.33,1.66,2.02c0.02,0.02,0.03,0.04,0.05,0.06c0.04,0.05,0.08,0.11,0.12,0.16c0.43,0.56,0.85,1.13,1.26,1.7
			c0.04,0.06,0.09,0.11,0.13,0.17c0.02,0.03,0.04,0.06,0.06,0.08c0.39,0.56,0.77,1.13,1.14,1.71c0.04,0.06,0.07,0.11,0.11,0.16
			c0.05,0.08,0.1,0.17,0.15,0.25c0.3,0.47,0.59,0.95,0.87,1.43c0.04,0.08,0.09,0.15,0.14,0.23c0.02,0.03,0.03,0.06,0.05,0.09
			c0.32,0.55,0.63,1.11,0.94,1.68c0.02,0.05,0.05,0.09,0.08,0.14c0.05,0.09,0.09,0.19,0.14,0.28c0.24,0.45,0.47,0.9,0.69,1.36
			c0.05,0.09,0.1,0.19,0.14,0.28c0.03,0.06,0.05,0.12,0.08,0.17c0.28,0.58,0.54,1.15,0.8,1.74c0.01,0.02,0.02,0.03,0.02,0.05
			c0.03,0.06,0.05,0.12,0.07,0.18c0.23,0.53,0.44,1.06,0.65,1.59c0.03,0.09,0.07,0.17,0.1,0.26c0.03,0.07,0.05,0.14,0.08,0.22
			c0.24,0.63,0.47,1.25,0.68,1.88c0,0.01,0.01,0.02,0.01,0.03c0.01,0.04,0.02,0.07,0.03,0.11c0.21,0.65,0.41,1.3,0.6,1.95
			c0.02,0.08,0.05,0.16,0.07,0.24c0.01,0.05,0.02,0.09,0.03,0.13c0.21,0.75,0.39,1.51,0.55,2.26c0.01,0.07,0.04,0.13,0.05,0.2
			c0.02,0.1,0.04,0.2,0.06,0.29c0.06,0.3,0.12,0.59,0.17,0.89c0.04,0.2,0.07,0.41,0.11,0.61c0.05,0.31,0.09,0.61,0.14,0.91
			c0.02,0.14,0.05,0.29,0.06,0.43c0,0.04,0.01,0.07,0.01,0.11c0.08,0.65,0.14,1.3,0.19,1.94c0.01,0.14,0.02,0.27,0.02,0.41
			c0.04,0.66,0.06,1.32,0.06,1.96c-0.02,7.12-2.54,12.14-6.59,14.5l-5.54,3.22c0.12-0.07,0.23-0.15,0.35-0.22
			c0.12-0.08,0.24-0.15,0.35-0.23C306.56,107.22,306.68,107.12,306.81,107.03z"/>
		<path style="fill:#FFFFFF;" d="M267.12,67.16c-0.04,14.34,10.05,31.81,22.53,39.02c6.46,3.73,12.3,3.97,16.43,1.35
			c0.12-0.08,0.24-0.15,0.35-0.23c0.13-0.09,0.25-0.18,0.37-0.28c0.11-0.08,0.23-0.17,0.34-0.26c0.12-0.1,0.23-0.2,0.35-0.31
			c0.11-0.1,0.22-0.19,0.32-0.29c0.11-0.11,0.22-0.22,0.33-0.34c0.1-0.11,0.2-0.21,0.3-0.32c0.11-0.12,0.2-0.25,0.31-0.37
			c0.09-0.11,0.19-0.23,0.28-0.34c0.1-0.13,0.19-0.27,0.28-0.4c0.09-0.12,0.18-0.24,0.26-0.37c0.09-0.14,0.17-0.29,0.26-0.43
			c0.08-0.13,0.16-0.26,0.24-0.4c0.08-0.15,0.16-0.31,0.24-0.47c0.07-0.14,0.15-0.28,0.21-0.42c0.08-0.16,0.14-0.33,0.22-0.5
			c0.06-0.15,0.13-0.29,0.19-0.44c0.07-0.17,0.13-0.36,0.19-0.53c0.05-0.15,0.11-0.31,0.17-0.46c0.06-0.18,0.11-0.38,0.16-0.57
			c0.05-0.16,0.1-0.32,0.14-0.49c0.05-0.19,0.09-0.4,0.14-0.6c0.04-0.17,0.08-0.34,0.12-0.51c0.04-0.21,0.08-0.43,0.11-0.65
			c0.03-0.17,0.06-0.34,0.09-0.51c0.04-0.24,0.06-0.5,0.09-0.75c0.02-0.16,0.04-0.31,0.06-0.47c0.03-0.28,0.04-0.57,0.06-0.85
			c0.01-0.14,0.02-0.27,0.03-0.41c0.02-0.43,0.03-0.87,0.03-1.31c0-0.65-0.02-1.3-0.06-1.96c0-0.04-0.01-0.08-0.01-0.13
			c-0.05-0.74-0.11-1.48-0.21-2.22c-0.01-0.08-0.02-0.16-0.03-0.25c-0.05-0.4-0.11-0.8-0.18-1.21c-0.03-0.2-0.07-0.41-0.11-0.61
			c-0.05-0.29-0.11-0.59-0.17-0.89c-0.01-0.05-0.02-0.1-0.03-0.15c-0.34-1.64-0.79-3.29-1.33-4.94c0,0,0,0,0,0
			c-0.71-2.15-1.59-4.28-2.6-6.37c-0.02-0.04-0.04-0.09-0.07-0.13c-0.57-1.17-1.19-2.32-1.84-3.46c-0.06-0.11-0.13-0.21-0.19-0.31
			c-0.3-0.5-0.6-1-0.92-1.5c-0.07-0.12-0.15-0.24-0.22-0.35c-0.85-1.33-1.76-2.61-2.72-3.84c-0.01-0.01-0.02-0.03-0.03-0.04
			c-0.94-1.21-1.93-2.37-2.96-3.47c0,0-0.01-0.01-0.01-0.01c-0.39-0.42-0.79-0.83-1.2-1.23c-0.06-0.06-0.13-0.12-0.19-0.19
			c-0.53-0.51-1.06-1.01-1.6-1.49c-0.02-0.02-0.04-0.04-0.06-0.05c-0.57-0.5-1.14-0.98-1.73-1.44c-0.11-0.08-0.21-0.17-0.32-0.25
			c-0.55-0.42-1.1-0.83-1.66-1.21c-0.02-0.02-0.05-0.03-0.07-0.05c-0.36-0.24-0.71-0.48-1.07-0.7c-0.31-0.19-0.62-0.39-0.94-0.57
			c-0.48-0.28-0.96-0.53-1.43-0.77c-0.01-0.01-0.03-0.01-0.04-0.02c-1.47-0.74-2.9-1.3-4.28-1.68c-0.14-0.04-0.27-0.07-0.41-0.1
			c-0.21-0.05-0.41-0.11-0.62-0.15c-0.15-0.03-0.3-0.06-0.45-0.08c-0.19-0.04-0.38-0.08-0.57-0.11c-0.16-0.02-0.32-0.04-0.48-0.06
			c-0.25-0.03-0.5-0.06-0.74-0.08c-0.1-0.01-0.19-0.01-0.28-0.02c-0.55-0.03-1.09-0.04-1.61-0.01c-0.09,0.01-0.17,0.01-0.26,0.02
			c-0.34,0.03-0.67,0.07-1,0.12c-0.01,0-0.01,0-0.02,0c-0.48,0.08-0.94,0.17-1.39,0.3c-0.06,0.02-0.11,0.04-0.17,0.05
			c-0.31,0.09-0.61,0.2-0.91,0.32c-0.05,0.02-0.11,0.04-0.16,0.07c-0.42,0.17-0.82,0.37-1.21,0.59
			C269.67,54.99,267.14,60.01,267.12,67.16z M281.51,97.64c-0.02-0.02-0.04-0.05-0.07-0.07c-0.33-0.35-0.65-0.71-0.97-1.07
			c-0.07-0.08-0.14-0.16-0.21-0.25c-0.52-0.61-1.04-1.23-1.54-1.87c-0.05-0.07-0.11-0.14-0.16-0.21c-0.4-0.51-0.78-1.04-1.16-1.57
			c-0.06-0.08-0.11-0.16-0.17-0.23c-0.36-0.52-0.71-1.05-1.06-1.58c-0.08-0.13-0.16-0.26-0.24-0.39c-0.28-0.44-0.55-0.88-0.81-1.33
			c-0.06-0.09-0.11-0.19-0.17-0.28c-0.3-0.51-0.59-1.03-0.87-1.56c-0.07-0.13-0.14-0.26-0.2-0.39c-0.22-0.42-0.43-0.83-0.63-1.25
			c-0.07-0.14-0.14-0.28-0.21-0.42c-0.25-0.53-0.5-1.07-0.73-1.6c-0.03-0.08-0.06-0.16-0.1-0.23c-0.21-0.48-0.41-0.97-0.6-1.46
			c-0.06-0.15-0.11-0.29-0.17-0.44c-0.22-0.58-0.43-1.16-0.62-1.74c-0.02-0.05-0.03-0.09-0.05-0.14c-0.2-0.6-0.38-1.2-0.55-1.8
			c-0.03-0.12-0.07-0.23-0.1-0.35c-0.19-0.7-0.36-1.39-0.51-2.09c-0.03-0.15-0.07-0.31-0.1-0.46c-0.06-0.27-0.11-0.54-0.16-0.81
			c-0.03-0.17-0.06-0.35-0.09-0.52c-0.05-0.3-0.09-0.6-0.14-0.89c-0.02-0.17-0.05-0.33-0.07-0.5c-0.08-0.6-0.13-1.2-0.18-1.79
			c-0.01-0.13-0.02-0.25-0.02-0.38c-0.04-0.61-0.06-1.22-0.06-1.81c0-0.41,0.01-0.82,0.03-1.22c0.01-0.15,0.02-0.3,0.03-0.44
			c0.02-0.24,0.03-0.49,0.05-0.73c0.01-0.15,0.04-0.3,0.05-0.45c0.03-0.23,0.05-0.45,0.08-0.67c0.02-0.16,0.05-0.31,0.08-0.47
			c0.03-0.2,0.07-0.41,0.11-0.61c0.03-0.16,0.07-0.31,0.11-0.46c0.04-0.19,0.08-0.38,0.13-0.56c0.04-0.15,0.09-0.3,0.13-0.45
			c0.05-0.17,0.1-0.35,0.15-0.52c0.05-0.15,0.1-0.29,0.15-0.44c0.06-0.16,0.11-0.33,0.17-0.49c0.06-0.14,0.12-0.28,0.18-0.41
			c0.07-0.15,0.13-0.31,0.2-0.46c0.06-0.13,0.13-0.26,0.2-0.39c0.07-0.15,0.14-0.29,0.22-0.43c0.07-0.12,0.14-0.24,0.22-0.36
			c0.08-0.14,0.16-0.28,0.25-0.41c0.08-0.12,0.16-0.23,0.24-0.34c0.09-0.13,0.17-0.25,0.27-0.38c0.08-0.11,0.17-0.21,0.26-0.32
			c0.09-0.12,0.19-0.23,0.28-0.34c0.09-0.1,0.19-0.19,0.28-0.29c0.1-0.1,0.2-0.21,0.3-0.31c0.1-0.09,0.2-0.18,0.3-0.27
			c0.11-0.09,0.21-0.19,0.32-0.28c0.1-0.09,0.21-0.16,0.32-0.24c0.11-0.08,0.22-0.17,0.34-0.25c0.11-0.08,0.22-0.14,0.34-0.21
			c1.01-0.64,2.13-1.1,3.34-1.36c3.37-0.72,7.45,0.07,11.85,2.61c11.55,6.67,20.88,22.82,20.84,36.1
			c-0.01,4.95-1.33,8.79-3.58,11.33c-0.76,0.86-1.63,1.57-2.59,2.12c0,0-0.01,0-0.01,0c-0.03,0.02-0.07,0.04-0.11,0.05
			c-0.28,0.15-0.56,0.29-0.85,0.42c-0.09,0.04-0.18,0.08-0.27,0.11c-0.27,0.11-0.55,0.21-0.84,0.3c-0.05,0.02-0.1,0.04-0.16,0.05
			c-0.34,0.1-0.68,0.17-1.04,0.24c-0.09,0.02-0.18,0.03-0.27,0.04c-0.3,0.05-0.61,0.08-0.93,0.11c-0.08,0.01-0.16,0.02-0.24,0.02
			c-0.39,0.02-0.8,0.02-1.21,0.01c-0.09,0-0.17-0.01-0.26-0.01c-0.22-0.01-0.44-0.03-0.67-0.05c-0.25-0.03-0.5-0.05-0.75-0.09
			c-0.16-0.02-0.32-0.06-0.48-0.09c-0.15-0.03-0.31-0.05-0.46-0.09c-0.12-0.03-0.24-0.06-0.36-0.09c-0.19-0.05-0.39-0.09-0.59-0.15
			c-0.74-0.21-1.5-0.47-2.28-0.78c-0.11-0.05-0.23-0.1-0.34-0.15c-0.4-0.17-0.81-0.36-1.22-0.56c-0.05-0.03-0.11-0.05-0.16-0.08
			c-0.44-0.22-0.88-0.45-1.32-0.71c-0.55-0.32-1.1-0.67-1.65-1.03c-0.02-0.02-0.05-0.03-0.07-0.05c-0.65-0.44-1.3-0.91-1.93-1.4
			c-0.03-0.03-0.07-0.05-0.1-0.08c-0.54-0.43-1.08-0.87-1.61-1.34c-0.02-0.02-0.03-0.03-0.05-0.05c-0.48-0.43-0.96-0.87-1.42-1.33
			c-0.08-0.08-0.16-0.15-0.23-0.22C282.22,98.38,281.86,98.01,281.51,97.64z"/>
	</g>
</g>
<g id="Pictures">
	<g>
		<g>
			<g>
				<polygon style="fill:none;" points="426.09,143.34 456.66,160.99 456.59,184.35 426.03,166.7 				"/>
				<polygon style="fill:#F0F0F0;" points="426.09,143.34 426.03,166.7 423.2,168.35 423.27,141.71 				"/>
				<polygon style="fill:#F5F5F5;" points="456.59,184.35 456.58,187.62 423.2,168.35 426.03,166.7 				"/>
				<path style="fill:#E0E0E0;" d="M419.76,170.3l40.23,23.23l0.1-34.49l-40.23-23.23L419.76,170.3z M423.2,168.35l0.08-26.63
					l2.82,1.63l30.56,17.65l-0.07,23.36l-0.01,3.27L423.2,168.35z"/>
				<polygon style="fill:#F5F5F5;" points="419.86,135.81 422.69,134.17 462.92,157.39 460.09,159.04 				"/>
				<polygon style="fill:#F0F0F0;" points="462.92,157.39 462.82,191.88 459.99,193.53 460.09,159.04 				"/>
			</g>
			<g>
				<g style="enable-background:new    ;">
					<g>
						<polygon style="fill:#E0E0E0;" points="435.81,152.21 427.47,158.78 427.45,165.19 455.17,181.19 455.19,174.78 
							449.91,164.29 445.17,167.97 446.84,173.18 444.41,168.56 						"/>
					</g>
					<g>
						<path style="fill:#E0E0E0;" d="M444.91,155.44c-1.3-0.75-2.37-0.15-2.37,1.35c0,1.5,1.05,3.33,2.35,4.08
							c1.3,0.75,2.37,0.15,2.37-1.35C447.27,158.02,446.22,156.2,444.91,155.44z"/>
					</g>
				</g>
			</g>
		</g>
		<g>
			<g>
				<polygon style="fill:none;" points="427.29,96.01 457.86,113.66 457.79,137.01 427.23,119.37 				"/>
				<polygon style="fill:#F0F0F0;" points="427.29,96.01 427.23,119.37 424.39,121.01 424.47,94.38 				"/>
				<polygon style="fill:#F5F5F5;" points="457.79,137.01 457.78,140.29 424.39,121.01 427.23,119.37 				"/>
				<path style="fill:#E0E0E0;" d="M420.96,122.97l40.23,23.23l0.1-34.49l-40.23-23.23L420.96,122.97z M424.39,121.01l0.08-26.63
					l2.82,1.63l30.56,17.65l-0.07,23.36l-0.01,3.27L424.39,121.01z"/>
				<polygon style="fill:#F5F5F5;" points="421.06,88.48 423.89,86.84 464.12,110.06 461.29,111.71 				"/>
				<polygon style="fill:#F0F0F0;" points="464.12,110.06 464.02,144.55 461.19,146.2 461.29,111.71 				"/>
			</g>
			<g>
				<g style="enable-background:new    ;">
					<g>
						<polygon style="fill:#E0E0E0;" points="437,104.88 428.67,111.44 428.65,117.85 456.37,133.86 456.39,127.45 451.11,116.95 
							446.36,120.64 448.04,125.85 445.61,121.22 						"/>
					</g>
					<g>
						<path style="fill:#E0E0E0;" d="M446.11,108.11c-1.3-0.75-2.37-0.15-2.37,1.35c0,1.5,1.05,3.33,2.36,4.08
							c1.3,0.75,2.37,0.15,2.37-1.35C448.47,110.69,447.41,108.86,446.11,108.11z"/>
					</g>
				</g>
			</g>
		</g>
	</g>
</g>
<g id="Speech_bubble">
	<g>
		<g>
			<g>
				<path style="fill:#3483FA;" d="M342.5,69.11l59.87,34.62c1.06,0.61,1.9,1.49,2.48,2.51c0.55,0.98,0.86,2.09,0.86,3.26v60.2
					c0,4.46-5.06,8.26-10.05,5.41l-25.04-14.84l-0.54,0.87c-0.02,0.04-0.06,0.05-0.09,0.08l0,0.01c-0.02,0.01-0.04,0.03-0.06,0.04
					c-0.01,0-0.01,0.01-0.02,0.01c-0.98,0.65-2.69,1.57-3.07,1.76l0.01-0.03c-0.18,0.05-0.38-0.02-0.45-0.22l-2.18-6.18h0
					l-28.42-16.05c-2.07-1.18-3.35-3.39-3.35-5.78V74.51C332.45,69.72,339.51,67.39,342.5,69.11z"/>
				<path style="fill:none;" d="M396.45,107.77C396.45,107.77,396.45,107.77,396.45,107.77
					C396.45,107.77,396.45,107.77,396.45,107.77z"/>
				<path style="opacity:0.2;fill:#FFFFFF;" d="M370.08,161.14c-0.02,0.04-0.06,0.05-0.09,0.08l0,0.01
					c-0.02,0.01-0.04,0.03-0.06,0.04c-0.01,0-0.01,0.01-0.02,0.01c-0.98,0.65-2.69,1.57-3.07,1.76l0.01-0.03
					c0.08-0.02,0.16-0.07,0.21-0.15l2.11-3.42l-0.42-0.24l0,0l1.86,1.06L370.08,161.14z"/>
				<path style="opacity:0.4;fill:#FFFFFF;" d="M398.23,110c-0.43-0.85-1.03-1.62-1.78-2.23c0,0,0,0,0,0
					c-0.25-0.2-0.52-0.39-0.81-0.55l-59.87-34.62c-1.48-0.85-3.32,0.22-3.32,1.92c0-4.8,7.07-7.12,10.05-5.41l59.87,34.62
					c1.06,0.61,1.9,1.49,2.48,2.51L398.23,110z"/>
				<path style="opacity:0.2;fill:#FFFFFF;" d="M398.98,173.19v-60.2c0-0.27-0.02-0.53-0.05-0.79c-0.1-0.77-0.35-1.51-0.7-2.2
					l6.62-3.76c0.55,0.98,0.86,2.09,0.86,3.26v60.2c0,4.46-5.06,8.26-10.05,5.41C397.14,175.96,398.98,174.89,398.98,173.19z"/>
			</g>
		</g>
		<g>
			<path style="fill:#FFFFFF;" d="M347.11,97.32l34.75,20.06l-2.09,23.82c-0.12,1.45-1.24,1.97-2.57,1.2l-26.62-15.37
				c-0.5-0.29-0.97-0.73-1.37-1.24l0.05,0.67c0.21,2.88,2.19,6.11,4.6,7.5l1.17,0.67c0.4,0.09,0.82,0.25,1.25,0.5
				c0.44,0.25,0.86,0.57,1.25,0.95l12.51,7.22c0.4,0.09,0.82,0.25,1.25,0.5c0.44,0.25,0.86,0.57,1.25,0.95l2.65,1.53
				c0.57,0.33,1.03,1.12,1.03,1.78c0,0.65-0.47,0.91-1.03,0.59l-0.2-0.12c0.29,0.83,0.46,1.68,0.46,2.47
				c-0.01,2.65-1.88,3.71-4.18,2.38c-2.3-1.33-4.16-4.55-4.15-7.19c0-0.79,0.18-1.44,0.47-1.93l-7.62-4.4
				c0.3,0.83,0.46,1.68,0.46,2.47c-0.01,2.65-1.88,3.71-4.18,2.38c-2.3-1.33-4.16-4.55-4.15-7.19c0-0.85,0.2-1.52,0.53-2.02
				c-2.9-2.28-5.15-6.33-5.42-10l-2.36-31.99c-0.09-1.28-0.98-2.72-2.05-3.34l-4.3-2.49c-0.57-0.33-1.03-1.12-1.03-1.78
				c0-0.65,0.46-0.92,1.03-0.59l4.3,2.49c2.14,1.24,3.9,4.1,4.09,6.67L347.11,97.32z M365.3,131.23l0.05-19.08
				c0-0.89-0.62-1.96-1.39-2.41s-1.4-0.09-1.4,0.8l-0.05,19.08c0,0.88,0.62,1.96,1.39,2.41C364.67,132.47,365.3,132.11,365.3,131.23
				 M371.33,134.71l0.05-19.08c0-0.89-0.62-1.96-1.39-2.41c-0.77-0.44-1.4-0.09-1.4,0.8l-0.05,19.08c0,0.88,0.62,1.96,1.39,2.41
				C370.7,135.95,371.32,135.59,371.33,134.71 M377.35,138.19l0.05-19.08c0-0.89-0.62-1.96-1.39-2.41c-0.77-0.44-1.4-0.09-1.4,0.8
				l-0.05,19.08c0,0.88,0.62,1.96,1.39,2.41C376.72,139.43,377.35,139.07,377.35,138.19 M359.27,127.75l0.05-19.08
				c0-0.89-0.62-1.96-1.39-2.41c-0.77-0.44-1.4-0.09-1.4,0.8l-0.05,19.08c0,0.88,0.62,1.96,1.39,2.41
				C358.64,128.99,359.27,128.63,359.27,127.75 M353.24,124.27l0.05-19.08c0-0.89-0.62-1.96-1.39-2.41s-1.4-0.09-1.4,0.8
				l-0.05,19.08c0,0.88,0.62,1.96,1.39,2.41C352.61,125.51,353.24,125.15,353.24,124.27 M356.27,138.12
				c-0.86-0.5-1.56-0.1-1.57,0.89c0,0.99,0.69,2.2,1.56,2.7c0.87,0.5,1.56,0.1,1.57-0.89C357.83,139.83,357.14,138.62,356.27,138.12
				 M371.28,146.79c-0.86-0.5-1.56-0.1-1.57,0.89s0.69,2.2,1.56,2.7c0.86,0.5,1.56,0.1,1.57-0.89
				C372.84,148.49,372.14,147.29,371.28,146.79"/>
		</g>
		<g>
			<g>
				<path style="fill:#FFFFFF;" d="M391.81,117.89c0.39,0.22,0.77,0.62,1.07,1.13c0.59,1.02,0.59,2.12-0.01,2.45l-8.83,5.04
					c-0.29,0.17-0.68,0.11-1.07-0.11c-0.39-0.22-0.77-0.61-1.07-1.12l-4.33-7.5c-0.59-1.02-0.59-2.12,0.01-2.46
					c0.29-0.17,0.68-0.11,1.07,0.11c0.39,0.22,0.77,0.62,1.07,1.12l3.26,5.65l7.76-4.42C391.04,117.61,391.43,117.66,391.81,117.89z
					"/>
			</g>
			<path style="fill:#3483FA;" d="M385.25,108.64c5.89,3.4,10.64,11.63,10.62,18.39c-0.02,6.76-4.81,9.48-10.69,6.09
				c-5.88-3.4-10.64-11.63-10.62-18.39C374.58,107.98,379.37,105.25,385.25,108.64z M384.04,126.5l8.83-5.04
				c0.59-0.33,0.6-1.43,0.01-2.45c-0.29-0.51-0.68-0.9-1.07-1.13c-0.39-0.22-0.77-0.28-1.07-0.11l-7.76,4.42l-3.26-5.65
				c-0.3-0.51-0.68-0.9-1.07-1.12c-0.39-0.22-0.77-0.28-1.07-0.11c-0.59,0.34-0.6,1.43-0.01,2.46l4.33,7.5
				c0.3,0.51,0.68,0.9,1.07,1.13C383.36,126.62,383.75,126.67,384.04,126.5"/>
			<path style="opacity:0.3;fill:#FFFFFF;" d="M385.25,108.64c5.89,3.4,10.64,11.63,10.62,18.39c-0.02,6.76-4.81,9.48-10.69,6.09
				c-5.88-3.4-10.64-11.63-10.62-18.39C374.58,107.98,379.37,105.25,385.25,108.64z M384.04,126.5l8.83-5.04
				c0.59-0.33,0.6-1.43,0.01-2.45c-0.29-0.51-0.68-0.9-1.07-1.13c-0.39-0.22-0.77-0.28-1.07-0.11l-7.76,4.42l-3.26-5.65
				c-0.3-0.51-0.68-0.9-1.07-1.12c-0.39-0.22-0.77-0.28-1.07-0.11c-0.59,0.34-0.6,1.43-0.01,2.46l4.33,7.5
				c0.3,0.51,0.68,0.9,1.07,1.13C383.36,126.62,383.75,126.67,384.04,126.5"/>
		</g>
	</g>
</g>
<g id="Device">
	<g>
		<g>
			<g>
				<g>
					<path style="fill:#455A64;" d="M193.31,79.64L193.31,79.64c-0.7-2.48-5.72-7.18-10.71-7.08c-0.18,0-1.08,0.09-1.4,0.27
						L84.2,128.03c-1.65,0.94-2.92,2.35-3.73,4c-0.61,1.25-0.96,2.63-0.96,4.07v209.83c0,5.35,6.16,10.45,11.95,7.99
						c0.01-0.01,0.02-0.02,0.04-0.03c0.12-0.05,0.25-0.08,0.37-0.15l97.01-55.28c2.9-1.65,4.69-4.73,4.69-8.06V80.65
						C193.56,80.28,193.46,79.94,193.31,79.64z"/>
					<path style="fill:#3483FA;" d="M93.04,158.27c0-1.67,0.9-3.21,2.35-4.03l90.07-51.24c1.55-0.88,3.47,0.24,3.47,2.02v169.2
						c0,1.66-0.9,3.21-2.34,4.03l-90.07,51.33c-1.55,0.88-3.47-0.24-3.47-2.02V158.27z"/>
					<path style="opacity:0.2;" d="M93.04,158.27c0-1.67,0.9-3.21,2.35-4.03l90.07-51.24c1.55-0.88,3.47,0.24,3.47,2.02v169.2
						c0,1.66-0.9,3.21-2.34,4.03l-90.07,51.33c-1.55,0.88-3.47-0.24-3.47-2.02V158.27z"/>
					<path style="opacity:0.1;fill:#FFFFFF;" d="M93.04,158.27c0-1.67,0.9-3.21,2.35-4.03l90.07-51.24
						c1.55-0.88,3.47,0.24,3.47,2.02v169.2c0,1.66-0.9,3.21-2.34,4.03l-90.07,51.33c-1.55,0.88-3.47-0.24-3.47-2.02V158.27z"/>
					<path style="opacity:0.3;" d="M79.51,136.09v209.83c0,5.35,6.16,10.45,11.95,7.99c0.01-0.01,0.02-0.02,0.04-0.03
						c-1.47,0.53-3.1-0.53-3.1-2.17V141.89c0-1.86,0.57-3.63,1.57-5.12l-9.5-4.75C79.86,133.27,79.51,134.65,79.51,136.09z"/>
					<path style="opacity:0.1;fill:#FFFFFF;" d="M182.6,72.56c-0.18,0-1.08,0.09-1.4,0.27L84.2,128.03c-1.65,0.94-2.92,2.35-3.73,4
						l9.5,4.75c0.79-1.19,1.84-2.21,3.12-2.94l97-55.19c1.22-0.7,2.66-0.13,3.22,1.01l0.01-0.01
						C192.62,77.16,187.6,72.46,182.6,72.56z"/>
					<g>
						<g>
							<g>
								<path style="fill:#263238;" d="M152.93,113.28c0.68-0.39,1.25-0.09,1.25,0.69c0,0.78-0.56,1.75-1.24,2.15l-19.03,10.99
									c-0.68,0.39-1.23,0.06-1.23-0.72c0-0.78,0.54-1.73,1.23-2.12L152.93,113.28z"/>
							</g>
							<g>
								<path style="fill:#263238;" d="M129.02,127.09c0.68-0.39,1.23-0.08,1.23,0.7c0,0.78-0.54,1.75-1.23,2.14
									c-0.68,0.39-1.25,0.07-1.25-0.71C127.77,128.44,128.33,127.49,129.02,127.09z"/>
							</g>
						</g>
						<g>
							<path style="fill:#263238;" d="M141.2,111.69c1.36-0.79,2.46-0.16,2.46,1.4c0,1.56-1.09,3.49-2.45,4.27
								c-1.36,0.79-2.49,0.14-2.49-1.42C138.72,114.38,139.84,112.47,141.2,111.69z"/>
						</g>
						<g>
							<path style="fill:#263238;" d="M141.2,309.22c2.77-1.6,5.01-0.33,5.02,2.86c0.01,3.19-2.21,7.1-4.99,8.71
								c-2.77,1.6-5.07,0.29-5.08-2.89C136.15,314.71,138.43,310.82,141.2,309.22z"/>
						</g>
					</g>
				</g>
			</g>
		</g>
		<g>
			<g>
				<polygon style="fill:#FFE600;" points="188.62,100.34 221.38,127.53 209.44,134.43 176.69,107.24 				"/>
				<polygon style="fill:#FFE600;" points="164.75,114.14 197.5,141.33 185.56,148.22 152.82,121.04 				"/>
				<polygon style="fill:#FFFFFF;" points="152.82,121.04 185.56,148.22 173.62,155.12 140.88,127.93 				"/>
				<polygon style="fill:#FFFFFF;" points="176.69,107.24 209.44,134.43 197.5,141.33 164.75,114.14 				"/>
				<polygon style="fill:#FFE600;" points="117.01,141.73 149.74,168.91 137.8,175.81 105.07,148.63 				"/>
				<polygon style="fill:#FFE600;" points="140.88,127.93 173.62,155.12 161.68,162.02 128.95,134.83 				"/>
				<polygon style="fill:#FFFFFF;" points="92.9,155.66 105.07,148.63 137.8,175.81 125.61,182.85 				"/>
				<polygon style="fill:#FFFFFF;" points="128.95,134.83 161.68,162.02 149.74,168.91 117.01,141.73 				"/>
			</g>
			<path style="fill:#FFE600;" d="M221.38,127.53l-11.94,6.9l0,0c0,3.54,3.84,5.76,6.91,3.99l0,0c3.11-1.8,5.03-5.12,5.03-8.72
				V127.53z"/>
			<path style="fill:#E0E0E0;" d="M209.44,134.43l-11.94,6.9l0,0c0,3.54,3.84,5.76,6.91,3.99l0,0c3.11-1.8,5.03-5.12,5.03-8.72
				V134.43z"/>
			<path style="fill:#FFE600;" d="M197.5,141.33l-11.94,6.9l0,0c0,3.54,3.84,5.76,6.91,3.99l0,0c3.11-1.8,5.03-5.12,5.03-8.72
				V141.33z"/>
			<path style="fill:#E0E0E0;" d="M185.56,148.22l-11.94,6.9l0,0c0,3.54,3.84,5.76,6.91,3.99l0,0c3.11-1.8,5.03-5.12,5.03-8.72
				V148.22z"/>
			<path style="fill:#FFE600;" d="M173.62,155.12l-11.94,6.9l0,0c0,3.54,3.84,5.76,6.91,3.99l0,0c3.11-1.8,5.03-5.12,5.03-8.72
				V155.12z"/>
			<path style="fill:#E0E0E0;" d="M161.68,162.01l-11.94,6.9l0,0c0,3.54,3.84,5.76,6.91,3.99l0,0c3.11-1.8,5.03-5.12,5.03-8.72
				V162.01z"/>
			<path style="fill:#FFE600;" d="M149.74,168.91l-11.94,6.9l0,0c0,3.54,3.84,5.76,6.91,3.99h0c3.11-1.8,5.03-5.12,5.03-8.72V168.91
				z"/>
			<path style="opacity:0.2;" d="M221.38,127.53l-11.94,6.9l0,0c0,3.54,3.84,5.76,6.91,3.99l0,0c3.11-1.8,5.03-5.12,5.03-8.72
				V127.53z"/>
			<path style="opacity:0.2;" d="M197.5,141.33l-11.94,6.9l0,0c0,3.54,3.84,5.76,6.91,3.99l0,0c3.11-1.8,5.03-5.12,5.03-8.72V141.33
				z"/>
			<path style="opacity:0.2;" d="M173.62,155.12l-11.94,6.9l0,0c0,3.54,3.84,5.76,6.91,3.99l0,0c3.11-1.8,5.03-5.12,5.03-8.72
				V155.12z"/>
			<path style="opacity:0.2;" d="M149.74,168.91l-11.94,6.9l0,0c0,3.54,3.84,5.76,6.91,3.99h0c3.11-1.8,5.03-5.12,5.03-8.72V168.91z
				"/>
			<path style="fill:#E0E0E0;" d="M137.8,175.81l-12.2,7.05l0,0c0,3.54,3.84,5.76,6.91,3.99l0,0c3.27-1.89,5.29-5.39,5.29-9.17
				V175.81z"/>
		</g>
		<g>
			<g>
				<path style="fill:#3483FA;" d="M151.72,211.01c-3.1,0.34-6.66,1.33-10.14,3.13c-3.48,1.79-6.86,4.37-9.61,7.54
					c-2.75,3.17-4.84,6.88-6.12,10.58c-1.29,3.7-1.78,7.36-1.68,10.48c0.72-3.03,1.79-6.41,3.39-9.78c1.59-3.36,3.71-6.7,6.27-9.66
					c2.57-2.95,5.58-5.52,8.68-7.56C145.62,213.69,148.82,212.15,151.72,211.01z"/>
			</g>
			<g>
				<path style="fill:#3483FA;" d="M142.38,263.36c-1.76-0.03-3.74-0.31-5.71-0.99c-1.97-0.67-3.91-1.75-5.55-3.18
					c-1.63-1.44-2.95-3.23-3.88-5.09c-0.93-1.86-1.47-3.79-1.73-5.53c-0.2,1.74-0.01,3.85,0.77,5.94c0.77,2.09,2.11,4.14,3.92,5.72
					c1.8,1.58,4.01,2.65,6.18,3.14C138.56,263.87,140.68,263.79,142.38,263.36z"/>
			</g>
			<g>
				<path style="fill:#3483FA;" d="M157.88,231.2c0.17,2.41,0.19,5.16-0.12,8.04c-0.31,2.88-0.94,5.88-1.92,8.77
					c-0.98,2.89-2.3,5.66-3.81,8.13c-1.5,2.48-3.19,4.64-4.79,6.45c2.01-1.33,4.14-3.24,5.97-5.64c1.84-2.4,3.4-5.27,4.44-8.33
					c1.03-3.06,1.55-6.29,1.54-9.31C159.2,236.28,158.67,233.48,157.88,231.2z"/>
			</g>
			<g>
				<path style="fill:#3483FA;" d="M126.53,220.16c-2.13,2.01-4.24,4.78-5.83,8.1c-1.6,3.31-2.67,7.17-2.95,11.11
					c-0.27,3.94,0.25,7.91,1.38,11.41c1.11,3.51,2.82,6.54,4.65,8.83c-1.17-2.69-2.27-5.84-2.96-9.28c-0.7-3.43-1-7.14-0.74-10.81
					c0.26-3.67,1.07-7.3,2.24-10.6C123.47,225.63,125,222.67,126.53,220.16z"/>
			</g>
			<g>
				<path style="fill:#3483FA;" d="M164.73,221.34c-0.18-2.36-1.08-5.11-2.83-7.57c-1.73-2.47-4.31-4.63-7.34-5.86
					c-3.03-1.23-6.39-1.47-9.35-0.9c-2.97,0.55-5.53,1.89-7.31,3.46c2.13-1.04,4.71-1.85,7.5-2.06c2.78-0.22,5.76,0.16,8.45,1.25
					c2.69,1.1,5.09,2.9,6.93,4.99C162.64,216.73,163.93,219.11,164.73,221.34z"/>
			</g>
		</g>
		<g>
			<path style="fill:#FFA8A7;" d="M207.62,190.03L207.62,190.03c6.57-0.67,12.55,3.84,13.71,10.34l4.65,26.02l29.1,20.35l-6.5,7.91
				l-27.68-14.54c-3.29-1.73-5.75-4.71-6.8-8.28l-8.92-30.09L207.62,190.03z"/>
			<g>
				<path style="fill:#455A64;" d="M218.42,217.94c2.57-1.34,4.64-3.56,5.88-6.17l-2.61-11.92c-1.37-6.27-7.23-10.51-13.62-9.86
					l-0.45,0.05l-2.45,11.71l3.87,17.28C212.16,219.78,215.56,219.43,218.42,217.94z"/>
				<path style="fill:#455A64;" d="M218.42,217.94c-2.86,1.49-6.26,1.85-9.38,1.08l0.95,4.26c3.62,0.8,12.86,0.54,15.27-7.1
					l-0.97-4.41C223.06,214.38,220.98,216.6,218.42,217.94z"/>
				<path style="opacity:0.2;fill:#FFFFFF;" d="M218.42,217.94c2.57-1.34,4.64-3.56,5.88-6.17l-2.61-11.92
					c-1.37-6.27-7.23-10.51-13.62-9.86l-0.45,0.05l-2.45,11.71l3.87,17.28C212.16,219.78,215.56,219.43,218.42,217.94z"/>
				<path style="opacity:0.5;fill:#FFFFFF;" d="M218.42,217.94c-2.86,1.49-6.26,1.85-9.38,1.08l0.95,4.26
					c3.62,0.8,12.86,0.54,15.27-7.1l-0.97-4.41C223.06,214.38,220.98,216.6,218.42,217.94z"/>
			</g>
			<path style="fill:#455A64;" d="M214.06,201.19c0,0-1.15-8.85-6.44-11.16c0,0-12.63,3.79-23.12,7.76
				c-5.11,1.94-8.27,3.24-12.15,5.17c-2.38,2.06-9.21,8.19-12.42,9.85c-1.56,0.8-3.26,1.26-4.99,1.5c-0.01,0-0.02,0-0.02,0
				c-1.93,0.26-4.02,1.01-6.21,2.27c-9.62,5.56-17.39,19.02-17.36,30.07c0.02,7.25,3.4,11.63,8.43,12.25c0,0.01,0,0.02,0,0.03
				c0.06,0,0.14,0,0.21,0c0.76,0.08,1.56,0.07,2.39-0.02c8.75-0.08,22.78-0.15,28.3-1.73C196.42,249.64,216.66,231.04,214.06,201.19
				z"/>
			<g>
				<path style="fill:#FFA8A7;" d="M189.53,197.56l3.78-6.84l15.16,10.22c-2,2.69-4,5.37-6,8.06c-2.6,1.12-5.56,1.5-8.14,0.33
					c-2.58-1.17-4.63-3.47-5.5-6.16C188.22,201.29,188.6,199.4,189.53,197.56z"/>
				<path style="opacity:0.2;" d="M194.72,191.67c0,8.23,6.55,12.1,10.55,13.56l3.19-4.29L194.72,191.67z"/>
			</g>
			<g>
				<g>
					<path style="fill:#263238;" d="M187.87,183.45c-0.56-3.29-1.13-6.67-0.49-9.95c0.64-3.28,2.75-6.48,5.95-7.44
						c1.15-2.77,3.92-5.01,6.77-5.93c2.85-0.92,5.9-1.01,8.89-1.08c3.31-0.08,6.66-0.14,9.9,0.55c3.24,0.69,6.41,2.21,8.48,4.8
						c2.38,2.99,3.03,7.08,2.46,10.86c-0.57,3.78-2.24,7.3-4.11,10.63c-6.36,0.45-12.84,1.18-19.21,1.63
						c-3.25,0.23-6.52,0.46-9.75,0.08C193.54,187.24,190.4,185.5,187.87,183.45z"/>
					<path style="fill:#FFA8A7;" d="M226.81,168.2c1.64,9.73,0.54,19.9-3.12,29.05c-0.85,2.13-1.95,4.33-3.95,5.47
						c-2.09,1.19-4.67,0.94-7.05,0.58c-3.83-0.58-7.68-1.36-11.13-3.13c-3.44-1.77-6.47-4.63-7.7-8.3
						c-2.53,0.61-5.18-0.56-6.75-2.64c-1.57-2.08-2.13-4.76-2.19-7.37c-0.04-1.67,0.31-3.64,1.8-4.37c1.39-0.68,3.06,0.08,4.27,1.06
						c1.97,1.6,3.44,3.8,4.16,6.24c1.1-4.06,2.82-7.98,3.92-12.04c0.43-1.6,0.97-3.34,2.36-4.23c1.7-1.09,3.93-0.46,5.89,0.02
						C213.33,170.03,220.91,170.04,226.81,168.2z"/>
					<polygon style="fill:#F28F8F;" points="214.97,180.53 219.72,188.52 214.06,189.59 					"/>
					<path style="fill:#F28F8F;" d="M208.6,192.34c1.43,0.7,2.87,1.39,4.3,2.09c-0.63,0.98-2.2,1.4-3.26,0.93
						C208.58,194.88,208.29,193.46,208.6,192.34z"/>
					<path style="opacity:0.3;" d="M208.6,192.34c1.43,0.7,2.87,1.39,4.3,2.09c-0.63,0.98-2.2,1.4-3.26,0.93
						C208.58,194.88,208.29,193.46,208.6,192.34z"/>
					<path style="fill:#F28F8F;" d="M211.13,195.5c-0.52,0.09-1.05,0.06-1.49-0.14c-0.83-0.37-1.19-1.33-1.15-2.27
						c0.61,0,1.22,0.2,1.7,0.59C210.73,194.13,211.06,194.8,211.13,195.5z"/>
					<path style="fill:#263238;" d="M206.77,180.85c-0.09,0.89,0.56,1.69,1.45,1.78c0.89,0.09,1.69-0.56,1.78-1.45
						c0.09-0.89-0.56-1.69-1.46-1.78C207.66,179.3,206.86,179.95,206.77,180.85z"/>
					<path style="fill:#263238;" d="M220.41,181.69c-0.09,0.89,0.56,1.69,1.46,1.78c0.89,0.09,1.69-0.56,1.78-1.45
						c0.09-0.89-0.56-1.69-1.46-1.78C221.3,180.15,220.5,180.8,220.41,181.69z"/>
					<path style="fill:#263238;" d="M222.63,175.41c1.11,0.95,2.22,1.89,3.34,2.84c0.44-0.82,0.21-1.95-0.44-2.61
						C224.87,174.99,223.45,174.97,222.63,175.41z"/>
					<path style="fill:#263238;" d="M209.33,175.19c-1.28,0.71-2.56,1.41-3.84,2.12c-0.27-0.89,0.18-1.96,0.96-2.47
						C207.23,174.33,208.62,174.6,209.33,175.19z"/>
					<g>
						<path style="fill:#455A64;" d="M229.85,171.49c-13.55,2.23-28.47,2.24-42.03,0.03c0.65-17.02,8.3-22.58,21.5-22.58
							S229.95,155.95,229.85,171.49z"/>
						<path style="fill:#455A64;" d="M229.85,171.49c0.04-6.52-1.26-11.51-3.73-15.14l-5.52-1.55c-2.59-0.73-5.31-0.87-7.96-0.43
							l-5.27,0.88c-3.68,0.62-6.52,3.6-6.95,7.31l-1.2,10.26l0,0C209.45,173.55,220.01,173.11,229.85,171.49z"/>
						<path style="opacity:0.29;fill:#FFFFFF;" d="M229.85,171.49c0.04-6.52-1.26-11.51-3.73-15.14l-5.52-1.55
							c-2.59-0.73-5.31-0.87-7.96-0.43l-5.27,0.88c-3.68,0.62-6.52,3.6-6.95,7.31l-1.2,10.26l0,0
							C209.45,173.55,220.01,173.11,229.85,171.49z"/>
						<path style="fill:#455A64;" d="M231.5,157.18h-2.44c-0.79,0-1.57,0.04-2.35,0.09c-7.13,0.52-13.92,3.38-19.28,8.18l-8.22,7.37
							c10.24,0.72,20.79,0.29,30.63-1.33l5.35-6.45C237.79,161.91,235.57,157.18,231.5,157.18z"/>
						<path style="opacity:0.2;" d="M231.5,157.18h-2.44c-0.79,0-1.57,0.04-2.35,0.09c-7.13,0.52-13.92,3.38-19.28,8.18l-8.22,7.37
							c10.24,0.72,20.79,0.29,30.63-1.33l5.35-6.45C237.79,161.91,235.57,157.18,231.5,157.18z"/>
					</g>
				</g>
			</g>
			<g>
				<g>
					<polygon style="fill:#3483FA;" points="273.77,248.06 236.49,269.72 198.97,248.06 236.24,226.39 					"/>
				</g>
				<g style="opacity:0.3;">
					<polygon style="fill:#FFFFFF;" points="273.77,248.06 236.49,269.72 198.97,248.06 236.24,226.39 					"/>
				</g>
				<g>
					<polygon style="fill:#3483FA;" points="273.77,248.06 273.66,285.98 236.38,307.64 236.49,269.72 					"/>
				</g>
				<g style="opacity:0.1;">
					<polygon style="fill:#FFFFFF;" points="273.77,248.06 273.66,285.98 236.38,307.64 236.49,269.72 					"/>
				</g>
				<g>
					<polygon style="fill:#3483FA;" points="236.49,269.72 236.38,307.64 198.86,285.98 198.97,248.06 					"/>
				</g>
				<g>
					<polygon style="fill:#FFE600;" points="242.98,245.28 255.6,237.57 249.16,233.85 236.49,241.41 					"/>
					<polygon style="fill:#FFE600;" points="242.98,245.28 236.49,241.41 223.62,233.73 217.2,237.46 229.99,245.28 236.49,249.25 
						253.65,259.75 260.53,255.75 					"/>
					<polygon style="fill:#FFE600;" points="229.99,245.28 212.36,255.79 219.27,259.78 236.49,249.25 					"/>
					<polygon style="fill:#FFE600;" points="260.53,255.75 253.65,259.75 253.71,259.78 253.81,297.51 260.77,293.47 260.66,255.82 
											"/>
					<polygon style="fill:#FFE600;" points="219.27,259.78 212.36,255.79 212.31,255.82 212.2,293.69 219.16,297.7 219.27,259.78 
											"/>
					<polygon style="opacity:0.2;fill:#FFE600;" points="219.27,259.78 212.36,255.79 212.31,255.82 212.2,293.69 219.16,297.7 
						219.27,259.78 					"/>
				</g>
				<polygon style="fill:#FFFFFF;" points="236.47,256.74 228.67,261.51 236.47,266.02 244.25,261.5 				"/>
			</g>
			<g>
				<path style="fill:#FFA8A7;" d="M162.67,255.43c0,0,2.91-42.35,3.51-44.97c2.34-10.07,16.94-9.35,18.33,0.89
					c0.57,4.18-6.1,44.77-6.1,44.77l24.16,25.56l4.9,4.49l4.35-0.89l9.94,0.94c0.53,0.05,0.97,0.44,1.08,0.97l0,0
					c0.13,0.64-0.27,1.28-0.9,1.43l-6.56,1.6l4.74,3.24c0.66,0.45,1.42,0.77,2.21,0.92l7.43,1.4c0.68,0.13,1.16,0.74,1.11,1.43l0,0
					c-0.03,0.54-0.38,1.01-0.89,1.2l-3.99,1.49c-5.23,1.95-11.05,1.54-15.95-1.14l-8.66-4.73c-1.25-0.68-2.44-1.49-3.54-2.4
					l-30.85-25.55C163.83,263.5,162.21,259.49,162.67,255.43z"/>
			</g>
			<g>
				<path style="fill:#455A64;" d="M184.12,239.2l3.09-22.97c0.9-6.69-3.88-12.81-10.59-13.55c-6.61-0.74-12.56,4.03-13.28,10.64
					l-2.58,23.47c3.36,1.92,7.1,3.18,10.95,3.64C175.87,240.92,180.13,240.49,184.12,239.2z"/>
				<path style="opacity:0.2;fill:#FFFFFF;" d="M184.12,239.2l3.09-22.97c0.9-6.69-3.88-12.81-10.59-13.55
					c-6.61-0.74-12.56,4.03-13.28,10.64l-2.58,23.47c3.36,1.92,7.1,3.18,10.95,3.64C175.87,240.92,180.13,240.49,184.12,239.2z"/>
				<path style="fill:#455A64;" d="M171.71,240.43c-3.84-0.46-7.58-1.72-10.95-3.64l-0.59,5.41c10.39,7.98,23.13,3.06,23.13,3.06
					l0.81-6.05C180.13,240.49,175.87,240.92,171.71,240.43z"/>
				<path style="opacity:0.5;fill:#FFFFFF;" d="M171.71,240.43c-3.84-0.46-7.58-1.72-10.95-3.64l-0.59,5.41
					c10.39,7.98,23.13,3.06,23.13,3.06l0.81-6.05C180.13,240.49,175.87,240.92,171.71,240.43z"/>
			</g>
		</g>
	</g>
</g>
<g id="Plants">
	<g>
		<g>
			<path style="fill:#FFFFFF;" d="M441.94,317.77l16.22,0.47l16.22-0.47c0.7,10.95-1.44,22.11-4.39,27.56l-0.01,0
				c-0.53,1.2-1.59,2.33-3.21,3.27c-4.79,2.76-12.52,2.76-17.27,0c-1.65-0.96-2.71-2.12-3.21-3.35
				C443.36,339.77,441.25,328.67,441.94,317.77z"/>
			<g>
				<path style="fill:#EBEBEB;" d="M446.73,311.13c-6.35,3.67-6.39,9.62-0.08,13.28c6.31,3.67,16.58,3.67,22.93,0
					c6.35-3.67,6.39-9.62,0.07-13.28C463.35,307.46,453.08,307.46,446.73,311.13z"/>
			</g>
			<g>
				<path style="fill:#E0E0E0;" d="M449.24,312.59c-4.96,2.86-4.98,7.5-0.06,10.36c4.92,2.86,12.94,2.86,17.89,0
					c4.96-2.86,4.98-7.5,0.06-10.36C462.21,309.73,454.2,309.73,449.24,312.59z"/>
			</g>
			<g style="opacity:0.15;">
				<path d="M449.24,312.59c-4.96,2.86-4.98,7.5-0.06,10.36c4.92,2.86,12.94,2.86,17.89,0c4.96-2.86,4.98-7.5,0.06-10.36
					C462.21,309.73,454.2,309.73,449.24,312.59z"/>
			</g>
		</g>
		<g>
			<path style="fill:#F9CF00;" d="M466.43,284.59c2.64-3.28,5.7-6.22,8.12-9.66c1.65-2.35,3.03-5.23,2.34-8.01
				c-0.64-2.58-3.06-4.51-5.68-5c-2.62-0.49-5.36,0.29-7.62,1.7c-2.26,1.41-4.1,3.4-5.76,5.48c-9.07,11.39-13.49,26.38-12.05,40.87
				c0.17,1.66,0.44,3.41,1.5,4.7c1.14,1.38,3.13,1.99,4.85,1.48c4.42-1.31,3.83-7.28,4.55-10.79c0.99-4.81,2.71-9.47,5.07-13.78
				C463.11,289.12,464.67,286.77,466.43,284.59z"/>
			<path style="opacity:0.2;fill:#FFFFFF;" d="M466.43,284.59c2.64-3.28,5.7-6.22,8.12-9.66c1.65-2.35,3.03-5.23,2.34-8.01
				c-0.64-2.58-3.06-4.51-5.68-5c-2.62-0.49-5.36,0.29-7.62,1.7c-2.26,1.41-4.1,3.4-5.76,5.48c-9.07,11.39-13.49,26.38-12.05,40.87
				c0.17,1.66,0.44,3.41,1.5,4.7c1.14,1.38,3.13,1.99,4.85,1.48c4.42-1.31,3.83-7.28,4.55-10.79c0.99-4.81,2.71-9.47,5.07-13.78
				C463.11,289.12,464.67,286.77,466.43,284.59z"/>
			<g>
				<path style="fill:#F0F0F0;" d="M451.85,311.7c0.17-0.03,0.3-0.18,0.31-0.36c0.31-7.09,2.61-31.3,19.3-45.03
					c0.16-0.14,0.19-0.38,0.05-0.54c-0.14-0.16-0.38-0.19-0.54-0.05c-16.93,13.94-19.26,38.42-19.58,45.59
					c-0.01,0.21,0.16,0.39,0.37,0.4C451.79,311.7,451.82,311.7,451.85,311.7z"/>
			</g>
			<g>
				<path style="fill:#F9CF00;" d="M449.42,312.46c0.51,2.78,2.9,6.23,5.42,7.51c2.5,1.27,5.4,1.61,8.2,1.37
					c2.85-0.24,5.61-1.06,8.32-1.97c1.34-0.45,2.82-1.06,2.97-2.71c0.08-0.87-0.32-1.72-0.95-2.33c-0.26-0.26-0.55-0.51-0.86-0.74
					c-0.63-0.48-0.33-1.48,0.46-1.54c0.8-0.05,1.59-0.14,2.37-0.29c1.81-0.35,3.59-1.04,4.98-2.25c1.04-0.91,1.83-2.1,2.3-3.41
					c0.4-1.11,0.52-2.51-0.33-3.34c-0.48-0.48-1.18-0.66-1.84-0.8c-0.59-0.13-1.19-0.24-1.78-0.33c-0.79-0.12-0.92-1.2-0.18-1.51
					l2.52-1.05c0.7-0.29,1.43-0.6,1.91-1.19c0.77-0.93,0.72-2.28,0.48-3.47c-0.31-1.58-0.85-3.09-1.22-4.66
					c-0.37-1.56-0.57-3.21-0.17-4.76c-4.7-0.48-9.52-0.25-14.09,0.94c-1.36,0.36-2.74,0.8-3.85,1.68c-1.57,1.26-1.98,3.14-1.81,5.18
					c0.03,0.39-0.5,0.53-0.69,0.19l-1.61-2.96c-0.48-0.89-1.58-1.23-2.5-0.8c-1.39,0.65-2.63,1.69-3.68,2.89
					c-1.13,1.29-1.71,2.99-1.57,4.71c0.19,2.32,0.59,4.66,1.17,6.91c0.15,0.59-0.51,1.03-1,0.68l-0.08-0.06
					c-0.44-0.32-0.98-0.51-1.52-0.44c-1.42,0.18-1.78,1.62-1.88,2.84C448.77,308.52,449.08,310.62,449.42,312.46z"/>
				<path style="opacity:0.2;" d="M449.42,312.46c0.51,2.78,2.9,6.23,5.42,7.51c2.5,1.27,5.4,1.61,8.2,1.37
					c2.85-0.24,5.61-1.06,8.32-1.97c1.34-0.45,2.82-1.06,2.97-2.71c0.08-0.87-0.32-1.72-0.95-2.33c-0.26-0.26-0.55-0.51-0.86-0.74
					c-0.63-0.48-0.33-1.48,0.46-1.54c0.8-0.05,1.59-0.14,2.37-0.29c1.81-0.35,3.59-1.04,4.98-2.25c1.04-0.91,1.83-2.1,2.3-3.41
					c0.4-1.11,0.52-2.51-0.33-3.34c-0.48-0.48-1.18-0.66-1.84-0.8c-0.59-0.13-1.19-0.24-1.78-0.33c-0.79-0.12-0.92-1.2-0.18-1.51
					l2.52-1.05c0.7-0.29,1.43-0.6,1.91-1.19c0.77-0.93,0.72-2.28,0.48-3.47c-0.31-1.58-0.85-3.09-1.22-4.66
					c-0.37-1.56-0.57-3.21-0.17-4.76c-4.7-0.48-9.52-0.25-14.09,0.94c-1.36,0.36-2.74,0.8-3.85,1.68c-1.57,1.26-1.98,3.14-1.81,5.18
					c0.03,0.39-0.5,0.53-0.69,0.19l-1.61-2.96c-0.48-0.89-1.58-1.23-2.5-0.8c-1.39,0.65-2.63,1.69-3.68,2.89
					c-1.13,1.29-1.71,2.99-1.57,4.71c0.19,2.32,0.59,4.66,1.17,6.91c0.15,0.59-0.51,1.03-1,0.68l-0.08-0.06
					c-0.44-0.32-0.98-0.51-1.52-0.44c-1.42,0.18-1.78,1.62-1.88,2.84C448.77,308.52,449.08,310.62,449.42,312.46z"/>
				<path style="opacity:0.2;fill:#FFFFFF;" d="M449.42,312.46c0.51,2.78,2.9,6.23,5.42,7.51c2.5,1.27,5.4,1.61,8.2,1.37
					c2.85-0.24,5.61-1.06,8.32-1.97c1.34-0.45,2.82-1.06,2.97-2.71c0.08-0.87-0.32-1.72-0.95-2.33c-0.26-0.26-0.55-0.51-0.86-0.74
					c-0.63-0.48-0.33-1.48,0.46-1.54c0.8-0.05,1.59-0.14,2.37-0.29c1.81-0.35,3.59-1.04,4.98-2.25c1.04-0.91,1.83-2.1,2.3-3.41
					c0.4-1.11,0.52-2.51-0.33-3.34c-0.48-0.48-1.18-0.66-1.84-0.8c-0.59-0.13-1.19-0.24-1.78-0.33c-0.79-0.12-0.92-1.2-0.18-1.51
					l2.52-1.05c0.7-0.29,1.43-0.6,1.91-1.19c0.77-0.93,0.72-2.28,0.48-3.47c-0.31-1.58-0.85-3.09-1.22-4.66
					c-0.37-1.56-0.57-3.21-0.17-4.76c-4.7-0.48-9.52-0.25-14.09,0.94c-1.36,0.36-2.74,0.8-3.85,1.68c-1.57,1.26-1.98,3.14-1.81,5.18
					c0.03,0.39-0.5,0.53-0.69,0.19l-1.61-2.96c-0.48-0.89-1.58-1.23-2.5-0.8c-1.39,0.65-2.63,1.69-3.68,2.89
					c-1.13,1.29-1.71,2.99-1.57,4.71c0.19,2.32,0.59,4.66,1.17,6.91c0.15,0.59-0.51,1.03-1,0.68l-0.08-0.06
					c-0.44-0.32-0.98-0.51-1.52-0.44c-1.42,0.18-1.78,1.62-1.88,2.84C448.77,308.52,449.08,310.62,449.42,312.46z"/>
				<path style="fill:#F0F0F0;" d="M456.89,319.59c0.02-0.1,0.99-4.81,3.79-10.99c0-0.11,0.05-0.21,0.13-0.29
					c0.09-0.19,0.17-0.38,0.27-0.57c-0.8-7.38-3.73-12.53-3.75-12.58c-0.11-0.18-0.04-0.42,0.14-0.53c0.18-0.1,0.42-0.04,0.53,0.14
					c0.03,0.05,2.72,4.78,3.7,11.69c3.21-6.43,8.33-13.96,16.23-19.46c0.18-0.12,0.42-0.08,0.54,0.1c0.12,0.18,0.08,0.42-0.1,0.54
					c-8.15,5.67-13.29,13.53-16.42,20.06c6.37-3.1,13.13-1.87,13.43-1.82c0.21,0.04,0.35,0.24,0.31,0.45
					c-0.03,0.16-0.15,0.28-0.3,0.31c-0.05,0.01-0.1,0.01-0.15,0c-0.07-0.01-7.45-1.35-13.83,2.21c-2.78,6.11-3.74,10.78-3.76,10.88
					c-0.03,0.16-0.16,0.28-0.3,0.3c-0.05,0.01-0.1,0.01-0.15,0C456.98,320,456.85,319.8,456.89,319.59z"/>
			</g>
		</g>
	</g>
	<g>
		<g>
			<path style="fill:#FFFFFF;" d="M87.33,350.91l-18.45,0.54l-18.45-0.54c-0.8,12.46,1.64,25.16,4.99,31.37l0.01,0
				c0.6,1.36,1.81,2.65,3.65,3.72c5.45,3.14,14.24,3.14,19.66,0c1.88-1.09,3.08-2.42,3.65-3.81
				C85.71,375.94,88.12,363.31,87.33,350.91z"/>
			<g>
				<path style="fill:#EBEBEB;" d="M81.88,343.35c7.23,4.17,7.27,10.94,0.09,15.12c-7.18,4.17-18.87,4.17-26.1,0
					c-7.23-4.17-7.27-10.94-0.08-15.12C62.97,339.18,74.65,339.18,81.88,343.35z"/>
			</g>
			<g>
				<path style="fill:#E0E0E0;" d="M79.02,345.01c5.64,3.26,5.67,8.54,0.07,11.79c-5.6,3.26-14.72,3.26-20.36,0
					c-5.64-3.26-5.67-8.54-0.07-11.79C64.26,341.76,73.38,341.76,79.02,345.01z"/>
			</g>
			<g style="opacity:0.15;">
				<path d="M79.02,345.01c5.64,3.26,5.67,8.54,0.07,11.79c-5.6,3.26-14.72,3.26-20.36,0c-5.64-3.26-5.67-8.54-0.07-11.79
					C64.26,341.76,73.38,341.76,79.02,345.01z"/>
			</g>
		</g>
		<g>
			<path style="fill:#F9CF00;" d="M99.21,272.16c-41.59,13.62-41.96,41.44-32.59,61.25c2.36,4.01,9.52,6.16,15.75-18.48l-10.92,1.4
				l12.73-6.45l3.31-9.88l-10.61,0.79l13.47-5.67C95.31,280.11,99.21,272.16,99.21,272.16z"/>
			<path style="opacity:0.2;" d="M99.21,272.16c-41.59,13.62-41.96,41.44-32.59,61.25c2.36,4.01,9.52,6.16,15.75-18.48l-10.92,1.4
				l12.73-6.45l3.31-9.88l-10.61,0.79l13.47-5.67C95.31,280.11,99.21,272.16,99.21,272.16z"/>
			<path style="opacity:0.2;fill:#FFFFFF;" d="M99.21,272.16c-41.59,13.62-41.96,41.44-32.59,61.25c2.36,4.01,9.52,6.16,15.75-18.48
				l-10.92,1.4l12.73-6.45l3.31-9.88l-10.61,0.79l13.47-5.67C95.31,280.11,99.21,272.16,99.21,272.16z"/>
			<path style="fill:#FFFFFF;" d="M87.45,279.12c-21.93,16.65-23.91,35.73-17.72,55.65C67.54,317.23,65.18,299.49,87.45,279.12z"/>
		</g>
		<g>
			<path style="fill:#F9CF00;" d="M28.78,300.42c40.99,5.77,45.97,31.62,40.53,51.63c-1.54,4.13-7.84,7.32-17.74-14.59l10.41-0.51
				l-12.93-3.89l-4.72-8.66l10.02-1.03l-13.49-3.04C33.73,307.18,28.78,300.42,28.78,300.42z"/>
			<path style="opacity:0.2;fill:#FFFFFF;" d="M28.78,300.42c40.99,5.77,45.97,31.62,40.53,51.63c-1.54,4.13-7.84,7.32-17.74-14.59
				l10.41-0.51l-12.93-3.89l-4.72-8.66l10.02-1.03l-13.49-3.04C33.73,307.18,28.78,300.42,28.78,300.42z"/>
			<path style="opacity:0.1;" d="M28.78,300.42c40.99,5.77,45.97,31.62,40.53,51.63c-1.54,4.13-7.84,7.32-17.74-14.59l10.41-0.51
				l-12.93-3.89l-4.72-8.66l10.02-1.03l-13.49-3.04C33.73,307.18,28.78,300.42,28.78,300.42z"/>
			<path style="fill:#FFFFFF;" d="M40.89,304.95c23.19,11.86,28.21,29.3,25.75,48.89C65.76,337.13,65.02,320.22,40.89,304.95z"/>
		</g>
		<g>
			<path style="fill:#F9CF00;" d="M111.21,310.11c-37.59,0.61-44.97,23.36-42.31,42c0.92,3.89,6.25,7.48,17.62-11.17l-9.32-1.62
				l12.09-2.06l5.22-7.27l-8.91-2.05l12.5-1.23C105.99,315.64,111.21,310.11,111.21,310.11z"/>
			<path style="fill:#FFFFFF;" d="M99.79,312.83c-22.23,8.09-28.7,23.25-28.68,41.18C73.77,339.06,76.33,323.9,99.79,312.83z"/>
			<path style="opacity:0.2;fill:#FFFFFF;" d="M111.21,310.11c-37.59,0.61-44.97,23.36-42.31,42c0.92,3.89,6.25,7.48,17.62-11.17
				l-9.32-1.62l12.09-2.06l5.22-7.27l-8.91-2.05l12.5-1.23C105.99,315.64,111.21,310.11,111.21,310.11z"/>
		</g>
	</g>
</g>
<g id="Character">
	<g>
		<g>
			<path style="fill:#F9CF00;" d="M328.04,272.54c-9.87,6.85-20.99,11.6-29.23,20.78c-15.4,17.16-15.76,44.78-3.66,64.41
				c12.09,19.63,34.58,31.43,57.48,34.13c24.02,2.83,49.24-3.81,68.08-18.97c18.85-15.16,30.84-38.86,30.83-63.05
				c-0.01-24.19-12.4-48.28-32.66-61.49c-18.49-12.06-45.05-15.5-63.6-1.7c-9.38,6.97-15.63,17.27-24.98,24.26
				C329.56,271.47,328.8,272.01,328.04,272.54z"/>
			<path style="opacity:0.2;" d="M328.04,272.54c-9.87,6.85-20.99,11.6-29.23,20.78c-15.4,17.16-15.76,44.78-3.66,64.41
				c12.09,19.63,34.58,31.43,57.48,34.13c24.02,2.83,49.24-3.81,68.08-18.97c18.85-15.16,30.84-38.86,30.83-63.05
				c-0.01-24.19-12.4-48.28-32.66-61.49c-18.49-12.06-45.05-15.5-63.6-1.7c-9.38,6.97-15.63,17.27-24.98,24.26
				C329.56,271.47,328.8,272.01,328.04,272.54z"/>
			<path style="opacity:0.1;fill:#FFFFFF;" d="M328.04,272.54c-9.87,6.85-20.99,11.6-29.23,20.78
				c-15.4,17.16-15.76,44.78-3.66,64.41c12.09,19.63,34.58,31.43,57.48,34.13c24.02,2.83,49.24-3.81,68.08-18.97
				c18.85-15.16,30.84-38.86,30.83-63.05c-0.01-24.19-12.4-48.28-32.66-61.49c-18.49-12.06-45.05-15.5-63.6-1.7
				c-9.38,6.97-15.63,17.27-24.98,24.26C329.56,271.47,328.8,272.01,328.04,272.54z"/>
			<path style="opacity:0.1;" d="M332.06,373.11c0.02-0.16,0.05-0.33,0.07-0.49c1.57-11,10.14-19.55,21.05-21.65
				c9.5-1.82,18.69-5.32,26.97-10.33c5.89-3.56,11.46-7.93,18.07-9.86c6.1-1.78,13.7-1.51,19.48,1.13
				c-5.56-5.83-15.08-8.4-22.69-5.76c5.27-8.06,9.9-16.75,11.72-26.21c1.82-9.46,0.53-19.84-5.18-27.6
				c-4.84-6.59-12.73-10.85-20.9-11.29c-8.17-0.44-16.46,2.96-21.98,8.99c-5.65,6.18-8.83,14.88-12.54,22.38
				c-2.66,5.39-5.42,10.91-9.81,15.02c-6.63,6.2-16.16,8.43-23.03,14.36c-7.79,6.72-11.15,17.48-11.19,27.77
				c-0.02,6.95,1.28,13.78,3.02,20.53c7.89,7.68,17.65,13.47,28.18,17.23C331.7,382.86,331.41,377.85,332.06,373.11z"/>
			<g>
				<path style="fill:#FFFFFF;" d="M438.64,306.53c-0.4-20.58-10.19-40.62-26.17-53.59c-9.78-7.94-21.67-13.05-34.05-14.96
					c-2.3,0.23-4.57,0.61-6.81,1.14c14.37,0.84,28.46,6.14,39.69,15.26c15.57,12.63,25.09,32.14,25.49,52.18
					c0.44,22.51-10.57,45.46-29.46,61.39c-14.8,12.48-34.47,20.76-56.08,23.73c0.46,0.06,0.92,0.13,1.38,0.18
					c1.94,0.23,3.89,0.39,5.85,0.5c19.2-3.72,36.59-11.64,50.05-22.99C427.84,353.09,439.1,329.6,438.64,306.53z"/>
			</g>
		</g>
		<g>
			<g>
				<g>
					<path style="fill:#37474F;" d="M323.34,389.66l2.47,4.9c3.5-3.23,4.13-5.84,4.13-5.84c-1.13-4-2.45-8.07-3.1-10.05
						c-0.34,2.76-2.22,5.13-3.01,7.82C323.53,387.53,323.39,388.59,323.34,389.66z"/>
					<path style="fill:#263238;" d="M323.46,394.69l2.36-0.12l-2.47-4.9C323.27,391.32,323.41,393.01,323.46,394.69z"/>
					<path style="fill:#455A64;" d="M325.26,372.88c-0.83-1.25-1.86-2.35-2.93-3.42c0.67,2.05,0.51,4.41-0.04,6.55
						c-0.73,2.84-2.07,5.51-2.73,8.37c-0.81,3.48-0.63,7.22-2.1,10.48c-1.43,3.17-4.45,5.57-7.85,6.27
						c-1.26,0.26-2.66,0.27-3.73-0.45c-0.48-0.32-0.84-0.84-1.03-1.39c-0.75,1.54-1.63,3.02-2.68,4.38
						c-1.17,1.51-2.61,3.16-2.3,5.04c0.26,1.55,1.74,2.68,3.28,3c1.54,0.32,3.14-0.01,4.67-0.39c3.28-0.82,6.55-1.92,9.35-3.81
						c2.8-1.9,5.13-4.67,5.93-7.95c0.39-1.58,0.42-3.22,0.37-4.86c-0.05-1.68-0.19-3.36-0.12-5.02c0.05-1.08,0.18-2.14,0.49-3.18
						c0.79-2.69,2.68-5.06,3.01-7.82c0.02-0.15,0.05-0.29,0.06-0.44C327.01,376.33,326.3,374.46,325.26,372.88z"/>
					<path style="opacity:0.1;" d="M325.26,372.88c-0.83-1.25-1.86-2.35-2.93-3.42c0.67,2.05,0.51,4.41-0.04,6.55
						c-0.73,2.84-2.07,5.51-2.73,8.37c-0.81,3.48-0.63,7.22-2.1,10.48c-1.43,3.17-4.45,5.57-7.85,6.27
						c-1.26,0.26-2.66,0.27-3.73-0.45c-0.48-0.32-0.84-0.84-1.03-1.39c-0.75,1.54-1.63,3.02-2.68,4.38
						c-1.17,1.51-2.61,3.16-2.3,5.04c0.26,1.55,1.74,2.68,3.28,3c1.54,0.32,3.14-0.01,4.67-0.39c3.28-0.82,6.55-1.92,9.35-3.81
						c2.8-1.9,5.13-4.67,5.93-7.95c0.39-1.58,0.42-3.22,0.37-4.86c-0.05-1.68-0.19-3.36-0.12-5.02c0.05-1.08,0.18-2.14,0.49-3.18
						c0.79-2.69,2.68-5.06,3.01-7.82c0.02-0.15,0.05-0.29,0.06-0.44C327.01,376.33,326.3,374.46,325.26,372.88z"/>
					<path style="fill:#AB6160;" d="M309.6,401.12c3.41-0.69,6.42-3.1,7.85-6.27c1.47-3.26,1.29-7,2.1-10.48
						c0.66-2.86,2-5.52,2.73-8.37c0.55-2.13,0.72-4.49,0.04-6.55c-0.28-0.28-0.56-0.56-0.85-0.84c-4.22,2.19-9.02,3.98-12.86,6.78
						c-0.05,4.92-0.1,9.87-0.94,14.72c-0.55,3.16-1.46,6.28-2.85,9.15c0.18,0.55,0.54,1.07,1.03,1.39
						C306.93,401.39,308.34,401.38,309.6,401.12z"/>
				</g>
				<path style="fill:#C48281;" d="M295.27,388.14c-0.7,4.07-3.82,12.36-3.82,12.36s14.62,0.59,14.94-0.08l4.3-6.64L295.27,388.14z"
					/>
				<path style="fill:#455A64;" d="M339.03,291.26l-37.28,20.77c-6.93,3.86-10.62,11.71-9.17,19.51l7.24,38.97l-5.93,18.85
					c5.12,6.87,16.87,7.21,16.87,7.21c6.56-13.15,11.37-18.74,15.09-29.75c3.72-11.02,6.21-18.62,6.21-18.62l30.96-8.46
					c14.47-3.96,25.15-16.31,26.83-31.22c0.53-4.68,0.55-7.88,0.55-7.88L339.03,291.26z"/>
				<path style="opacity:0.2;" d="M336.5,303.53c-0.01,4.12,1.5,8.23,4.17,11.36l-23.49,14.67c-3.86,2.42-6.72,6.14-8.05,10.5
					l-9.31,30.45l8.4-33.91c0.97-3.9,3.42-7.27,6.84-9.38l21.48-13.21C334.05,307.8,336.5,303.53,336.5,303.53z"/>
				<g>
					<path style="fill:#37474F;" d="M299.39,419.4l0.35,5.48c4.49-1.6,6.1-3.75,6.1-3.75c0.53-4.13,0.92-8.39,1.1-10.46
						c-1.39,2.4-4.06,3.84-5.84,6C300.39,417.5,299.85,418.43,299.39,419.4z"/>
					<path style="fill:#263238;" d="M297.52,424.06l2.21,0.82l-0.35-5.48C298.67,420.89,298.13,422.5,297.52,424.06z"/>
					<path style="fill:#455A64;" d="M307.74,404.71c-0.27-1.48-0.78-2.9-1.35-4.29c-0.19,2.15-1.27,4.26-2.62,6
						c-1.79,2.32-4.07,4.25-5.8,6.62c-2.11,2.88-3.41,6.39-6.05,8.81c-2.56,2.35-6.28,3.37-9.69,2.67c-1.26-0.26-2.55-0.8-3.26-1.88
						c-0.32-0.49-0.45-1.1-0.4-1.68c-1.29,1.12-2.68,2.13-4.19,2.97c-1.67,0.93-3.65,1.88-4.09,3.73c-0.37,1.53,0.55,3.15,1.84,4.05
						c1.29,0.9,2.89,1.23,4.45,1.48c3.34,0.54,6.77,0.81,10.1,0.17c3.32-0.64,6.55-2.28,8.58-4.98c0.98-1.3,1.65-2.79,2.25-4.32
						c0.61-1.56,1.15-3.17,1.87-4.66c0.47-0.97,1.01-1.89,1.7-2.73c1.79-2.16,4.45-3.6,5.84-6c0.07-0.13,0.16-0.25,0.23-0.38
						C308,408.58,308.08,406.58,307.74,404.71z"/>
					<path style="fill:#C48281;" d="M282.24,424.53c3.41,0.7,7.12-0.32,9.69-2.67c2.64-2.41,3.94-5.93,6.05-8.81
						c1.74-2.37,4.01-4.29,5.8-6.62c1.35-1.74,2.43-3.85,2.62-6c-0.15-0.37-0.3-0.74-0.45-1.1c-4.74,0.35-9.86,0.12-14.49,1.18
						c-1.98,4.51-3.97,9.04-6.65,13.16c-1.74,2.69-3.81,5.2-6.22,7.3c-0.05,0.58,0.08,1.2,0.4,1.68
						C279.69,423.72,280.98,424.27,282.24,424.53z"/>
				</g>
			</g>
			<g>
				<path style="fill:#263238;" d="M377.24,236.19c6.08-13.91,6.46-30.22,1.04-44.4c-1.74-4.54-4.2-9.05-8.23-11.77
					c-5.15-3.48-11.83-3.43-18.05-3.25c-3.3,0.09-6.67,0.2-9.77,1.34c-3.1,1.14-5.64,3.59-6.45,6.79c-4.06-0.76-8.17,2.46-9.26,6.44
					c-1.1,3.98,0.34,8.34,2.87,11.61c2.53,3.27,6.03,5.63,9.56,7.78c-2.13,1.12-3.71,3.7-4.46,5.99c-0.75,2.29-0.56,4.86,0.5,7.02
					c-3.75-0.1-7.57,2.66-8.73,6.22c-1.16,3.56-0.18,7.63,2.11,10.61c2.29,2.97,5.73,4.91,9.36,5.86c3.63,0.95,7.44,0.96,11.18,0.6
					c3.86,3.74,10.94,3.66,15.78,1.34C369.51,246.05,375.09,241.11,377.24,236.19z"/>
				<g>
					<g>
						<g>
							<path style="fill:#C48281;" d="M342.69,226.8l-0.95,0.01c-6.35,0.07-14.39,4.39-18.32,15.48l-15.26,29.56l17.42,7.72
								l9.53-27.9L342.69,226.8z"/>
						</g>
						<path style="fill:#AB6160;" d="M330.45,246.42c-1.22,3.49-1.29,7.26-1.48,10.95c-0.19,3.69-0.62,8.15-2.31,11.44
							c-1.85-1.28-4.11-1.94-6.35-1.86c-2.24,0.08-4.45,0.91-6.2,2.31c-1.26,1.01-2.19,2.41-2.83,3.97l14.31,6.34l9.53-27.9
							l4.68-15.38C335.51,238.26,332.01,241.96,330.45,246.42z"/>
					</g>
					<g>
						<path style="fill:#C48281;" d="M325.74,274.24c-1.28-3.29-4.39-5.81-7.88-6.37c-3.49-0.56-7.45,1.26-9.7,3.98
							c-1.9,2.3-1.6,5.4-0.4,8.13c1.88,4.28,7.12,6.76,11.62,5.51C323.88,284.23,327.44,278.59,325.74,274.24z"/>
					</g>
				</g>
				<path style="fill:#BA68C8;" d="M344.29,226.26c-6.73,1.07-10.89,18.07-13.08,24.53c-2.26,6.67,0.81,11.51,4.23,15.54l0,0
					c1.25,1.48,1.83,3.42,1.57,5.34l-7.07,26.27c19.3,14.33,51.67,7.38,60.44,2.71c0-12-3.02-21.01-5.67-26.6
					c-2.56-5.4-4.07-11.23-4.27-17.21l-0.33-9.65l2.33-16.64l-16.76-3.99l-14.77-0.66C350.91,225.91,346.48,225.91,344.29,226.26z"
					/>
				<path style="opacity:0.4;" d="M344.29,226.26c-6.73,1.07-10.89,18.07-13.08,24.53c-2.26,6.67,0.81,11.51,4.23,15.54l0,0
					c1.25,1.48,1.83,3.42,1.57,5.34l-7.07,26.27c19.3,14.33,51.67,7.38,60.44,2.71c0-12-3.02-21.01-5.67-26.6
					c-2.56-5.4-4.07-11.23-4.27-17.21l-0.33-9.65l2.33-16.64l-16.76-3.99l-14.77-0.66C350.91,225.91,346.48,225.91,344.29,226.26z"
					/>
				<g>
					<g>
						<g>
							<g style="enable-background:new    ;">
								<path style="fill:#455A64;" d="M344.14,302.16c0-0.01,0-0.01,0-0.02c0,0,0,0,0-0.01c0-0.01,0-0.02-0.01-0.03
									c0-0.02-0.01-0.04-0.01-0.06c-0.01-0.02-0.01-0.04-0.02-0.06c-0.01-0.02-0.01-0.04-0.02-0.06
									c-0.01-0.02-0.02-0.04-0.02-0.06c-0.01-0.02-0.02-0.04-0.03-0.06c-0.01-0.02-0.02-0.04-0.03-0.06c0,0,0,0,0,0l-11.4-21.23
									c-0.01-0.02-0.02-0.04-0.03-0.06c-0.01-0.02-0.02-0.04-0.04-0.06c-0.01-0.02-0.03-0.04-0.04-0.06
									c-0.01-0.02-0.03-0.04-0.04-0.07c-0.01-0.02-0.03-0.05-0.05-0.07c-0.02-0.02-0.03-0.05-0.05-0.07
									c-0.02-0.02-0.03-0.05-0.05-0.07c-0.02-0.02-0.03-0.04-0.05-0.07c-0.02-0.02-0.03-0.04-0.05-0.06
									c-0.02-0.02-0.03-0.04-0.05-0.06c-0.01-0.02-0.03-0.03-0.04-0.05c-0.01-0.02-0.03-0.03-0.04-0.05
									c-0.01-0.01-0.02-0.03-0.03-0.04c-0.01-0.01-0.02-0.02-0.03-0.03s-0.02-0.02-0.03-0.03c-0.01-0.01-0.02-0.02-0.03-0.03
									c-0.01-0.01-0.02-0.02-0.02-0.03c-0.01-0.01-0.02-0.02-0.02-0.02c-0.01-0.01-0.02-0.02-0.02-0.03
									c-0.01-0.01-0.02-0.02-0.02-0.03c-0.01-0.01-0.02-0.02-0.02-0.03c-0.01-0.01-0.01-0.02-0.02-0.02
									c-0.01-0.01-0.01-0.01-0.02-0.02c-0.01-0.01-0.01-0.01-0.02-0.02c-0.01-0.01-0.01-0.01-0.02-0.02
									c-0.01-0.01-0.01-0.01-0.02-0.02c-0.01-0.01-0.01-0.01-0.02-0.02c-0.01-0.01-0.01-0.01-0.02-0.02
									c-0.01-0.01-0.02-0.02-0.02-0.02c-0.01-0.01-0.02-0.02-0.02-0.02c-0.01-0.01-0.02-0.02-0.02-0.02
									c-0.01-0.01-0.02-0.02-0.02-0.02c-0.01-0.01-0.02-0.02-0.02-0.02c-0.01-0.01-0.03-0.02-0.04-0.04
									c-0.01-0.01-0.03-0.03-0.04-0.04c-0.01-0.01-0.03-0.03-0.04-0.04c-0.05-0.05-0.11-0.1-0.17-0.15
									c-0.01-0.01-0.02-0.02-0.04-0.03c-0.01-0.01-0.02-0.02-0.04-0.03c-0.01-0.01-0.02-0.02-0.04-0.03
									c-0.01-0.01-0.02-0.02-0.04-0.03c-0.01-0.01-0.02-0.01-0.02-0.02c-0.01-0.01-0.02-0.01-0.02-0.02
									c-0.01-0.01-0.02-0.01-0.02-0.02c-0.01-0.01-0.02-0.01-0.02-0.02c-0.01-0.01-0.02-0.01-0.02-0.02
									c-0.01-0.01-0.02-0.01-0.02-0.02c-0.01-0.01-0.02-0.01-0.02-0.02c-0.01-0.01-0.02-0.01-0.02-0.02
									c-0.01-0.01-0.02-0.01-0.02-0.02c-0.01-0.01-0.02-0.01-0.02-0.02c-0.01-0.01-0.02-0.01-0.02-0.02
									c-0.01-0.01-0.02-0.01-0.02-0.02c-0.01-0.01-0.02-0.01-0.03-0.02c-0.01-0.01-0.02-0.01-0.03-0.02
									c-0.01-0.01-0.02-0.01-0.03-0.02c-0.01-0.01-0.02-0.01-0.03-0.02c-0.01-0.01-0.02-0.01-0.03-0.02
									c-0.01-0.01-0.02-0.01-0.03-0.02c-0.01-0.01-0.03-0.02-0.04-0.03c-0.01-0.01-0.03-0.02-0.04-0.03
									c-0.01-0.01-0.03-0.02-0.04-0.03c-0.01-0.01-0.03-0.02-0.04-0.03c-0.02-0.01-0.04-0.03-0.06-0.04
									c-0.02-0.01-0.04-0.02-0.06-0.04c-0.02-0.01-0.04-0.03-0.06-0.04c-0.02-0.01-0.05-0.03-0.07-0.04
									c-0.02-0.01-0.05-0.03-0.07-0.04c-0.03-0.01-0.05-0.03-0.07-0.04c-0.01-0.01-0.03-0.02-0.04-0.02l-13.11-7.37
									c-0.01-0.01-0.02-0.01-0.03-0.02c-0.03-0.01-0.05-0.03-0.08-0.04c-0.02-0.01-0.05-0.03-0.07-0.04
									c-0.02-0.01-0.05-0.02-0.07-0.03c-0.02-0.01-0.05-0.02-0.07-0.03c-0.02-0.01-0.05-0.02-0.07-0.03
									c-0.02-0.01-0.05-0.02-0.07-0.03c-0.02-0.01-0.05-0.02-0.07-0.03c-0.02-0.01-0.05-0.02-0.07-0.02
									c-0.02-0.01-0.05-0.01-0.07-0.02c-0.02,0-0.03-0.01-0.05-0.01c0,0,0,0,0,0c-0.01,0-0.01,0-0.02,0
									c-0.03-0.01-0.05-0.01-0.08-0.01c-0.03,0-0.06,0-0.09,0c-0.09,0-0.16,0.03-0.2,0.08l-1.56,1.79c0.01-0.01,0.04,0,0.05-0.01
									c-0.13,0.1-0.14,0.31,0.05,0.66l11.4,21.23c0.41,0.76,1.53,1.83,2.51,2.38l13.11,7.37c0.68,0.38,1.08,0.39,1.14,0.11
									c-0.01,0.04,0,0.09-0.03,0.12l0,0l0,0l1.56-1.79c0.02-0.02,0.03-0.05,0.04-0.08c0.01-0.02,0.01-0.05,0.01-0.07
									C344.14,302.2,344.14,302.18,344.14,302.16z M314.58,272.24c0.04,0,0.05-0.02,0.09-0.01c0,0,0,0,0,0
									c0.01,0,0.03,0.02,0.05,0.02C314.66,272.24,314.63,272.25,314.58,272.24z M329.61,280.71c0.12,0.1,0.25,0.2,0.36,0.31l0,0
									C329.86,280.91,329.73,280.81,329.61,280.71z M330.43,281.51c0.05,0.06,0.11,0.11,0.16,0.17c0,0,0,0,0,0
									C330.54,281.62,330.48,281.56,330.43,281.51z M342.57,303.96c-0.01-0.11-0.04-0.25-0.14-0.42c0.08,0.15,0.13,0.28,0.14,0.39
									c0,0,0,0,0,0C342.57,303.94,342.56,303.94,342.57,303.96z"/>
							</g>
						</g>
						<path style="opacity:0.15;fill:#FFFFFF;" d="M344.14,302.16c0-0.01,0-0.01,0-0.02c0,0,0,0,0-0.01c0-0.01,0-0.02-0.01-0.03
							c0-0.02-0.01-0.04-0.01-0.06c-0.01-0.02-0.01-0.04-0.02-0.06c-0.01-0.02-0.01-0.04-0.02-0.06c-0.01-0.02-0.02-0.04-0.02-0.06
							c-0.01-0.02-0.02-0.04-0.03-0.06c-0.01-0.02-0.02-0.04-0.03-0.06c0,0,0,0,0,0l-11.4-21.23l-1.56,1.79l11.4,21.23
							c0.08,0.15,0.13,0.28,0.14,0.39c0,0,0,0,0,0c0.01,0.1,0,0.18-0.05,0.24l0,0l0,0l0,0l1.56-1.79c0.02-0.02,0.03-0.05,0.04-0.08
							c0.01-0.02,0.01-0.05,0.01-0.07C344.14,302.2,344.14,302.18,344.14,302.16z"/>
						<path style="opacity:0.2;fill:#FFFFFF;" d="M332.55,280.45c-0.01-0.02-0.02-0.04-0.04-0.06c-0.01-0.02-0.03-0.04-0.04-0.06
							c-0.01-0.02-0.03-0.04-0.04-0.07c-0.01-0.02-0.03-0.05-0.05-0.07c-0.02-0.02-0.03-0.05-0.05-0.07
							c-0.02-0.02-0.03-0.05-0.05-0.07c-0.02-0.02-0.03-0.04-0.05-0.07c-0.02-0.02-0.03-0.04-0.05-0.06
							c-0.02-0.02-0.03-0.04-0.05-0.06c-0.01-0.02-0.03-0.03-0.04-0.05c-0.01-0.02-0.03-0.03-0.04-0.05
							c-0.01-0.01-0.02-0.03-0.03-0.04c-0.01-0.01-0.02-0.02-0.03-0.03s-0.02-0.02-0.03-0.03c-0.01-0.01-0.02-0.02-0.03-0.03
							c-0.01-0.01-0.02-0.02-0.02-0.03c-0.01-0.01-0.02-0.02-0.02-0.02c-0.01-0.01-0.02-0.02-0.02-0.03
							c-0.01-0.01-0.02-0.02-0.02-0.03c-0.01-0.01-0.02-0.02-0.02-0.03c-0.01-0.01-0.01-0.02-0.02-0.02
							c-0.01-0.01-0.01-0.01-0.02-0.02c-0.01-0.01-0.01-0.01-0.02-0.02c-0.01-0.01-0.01-0.01-0.02-0.02
							c-0.01-0.01-0.01-0.01-0.02-0.02c-0.01-0.01-0.01-0.01-0.02-0.02c-0.01-0.01-0.01-0.01-0.02-0.02
							c-0.01-0.01-0.02-0.02-0.02-0.02c-0.01-0.01-0.02-0.02-0.02-0.02c-0.01-0.01-0.02-0.02-0.02-0.02
							c-0.01-0.01-0.02-0.02-0.02-0.02c-0.01-0.01-0.02-0.02-0.02-0.02c-0.01-0.01-0.03-0.02-0.04-0.04
							c-0.01-0.01-0.03-0.03-0.04-0.04c-0.01-0.01-0.03-0.03-0.04-0.04c-0.05-0.05-0.11-0.1-0.17-0.15
							c-0.01-0.01-0.02-0.02-0.04-0.03c-0.01-0.01-0.02-0.02-0.04-0.03c-0.01-0.01-0.02-0.02-0.04-0.03
							c-0.01-0.01-0.02-0.02-0.04-0.03c-0.01-0.01-0.02-0.01-0.02-0.02c-0.01-0.01-0.02-0.01-0.02-0.02
							c-0.01-0.01-0.02-0.01-0.02-0.02c-0.01-0.01-0.02-0.01-0.02-0.02c-0.01-0.01-0.02-0.01-0.02-0.02
							c-0.01-0.01-0.02-0.01-0.02-0.02c-0.01-0.01-0.02-0.01-0.02-0.02c-0.01-0.01-0.02-0.01-0.02-0.02
							c-0.01-0.01-0.02-0.01-0.02-0.02c-0.01-0.01-0.02-0.01-0.02-0.02c-0.01-0.01-0.02-0.01-0.02-0.02
							c-0.01-0.01-0.02-0.01-0.02-0.02c-0.01-0.01-0.02-0.01-0.03-0.02c-0.01-0.01-0.02-0.01-0.03-0.02
							c-0.01-0.01-0.02-0.01-0.03-0.02c-0.01-0.01-0.02-0.01-0.03-0.02c-0.01-0.01-0.02-0.01-0.03-0.02
							c-0.01-0.01-0.02-0.01-0.03-0.02c-0.01-0.01-0.03-0.02-0.04-0.03c-0.01-0.01-0.03-0.02-0.04-0.03
							c-0.01-0.01-0.03-0.02-0.04-0.03c-0.01-0.01-0.03-0.02-0.04-0.03c-0.02-0.01-0.04-0.03-0.06-0.04
							c-0.02-0.01-0.04-0.02-0.06-0.04c-0.02-0.01-0.04-0.03-0.06-0.04c-0.02-0.01-0.05-0.03-0.07-0.04
							c-0.02-0.01-0.05-0.03-0.07-0.04c-0.03-0.01-0.05-0.03-0.07-0.04c-0.01-0.01-0.03-0.02-0.04-0.02l-13.11-7.37
							c-0.01-0.01-0.02-0.01-0.03-0.02c-0.03-0.01-0.05-0.03-0.08-0.04c-0.02-0.01-0.05-0.03-0.07-0.04
							c-0.02-0.01-0.05-0.02-0.07-0.03c-0.02-0.01-0.05-0.02-0.07-0.03c-0.02-0.01-0.05-0.02-0.07-0.03
							c-0.02-0.01-0.05-0.02-0.07-0.03c-0.02-0.01-0.05-0.02-0.07-0.03c-0.02-0.01-0.05-0.02-0.07-0.02
							c-0.02-0.01-0.05-0.01-0.07-0.02c-0.02,0-0.03-0.01-0.05-0.01c0,0,0,0,0,0c-0.01,0-0.01,0-0.02,0
							c-0.03-0.01-0.05-0.01-0.08-0.01c-0.03,0-0.06,0-0.09,0c-0.09,0-0.16,0.03-0.2,0.08l-1.56,1.79c0.07-0.08,0.2-0.1,0.39-0.06
							c0,0,0,0,0,0c0.19,0.04,0.43,0.14,0.72,0.3l13.11,7.37c0.24,0.14,0.49,0.31,0.74,0.5c0,0,0,0,0,0
							c0.25,0.19,0.49,0.4,0.72,0.61c0,0,0,0,0,0c0.23,0.22,0.44,0.44,0.62,0.66c0,0,0,0,0,0c0.18,0.22,0.33,0.43,0.43,0.62
							l1.56-1.79C332.58,280.49,332.57,280.47,332.55,280.45z"/>
					</g>
					<path style="fill:#C48281;" d="M388.92,236.12c-1.86-3.19-4.3-5.64-7.98-5.92c0,0-6.04,3.12-6.04,17.28l0.4,35.43l0.01,0
						c-0.87,0.35-1.73,0.72-2.6,1.08c-7.17,2.98-15.13,5.63-22.79,6.89c-3.85-3.25-9.34-4.93-14.37-4.88l1.93,3.6
						c-3.66,2.35-11.94-1.88-11.94-1.88c-0.61,5.16,2.74,10.53,7.17,13.24c4.44,2.71,46.79-1.27,55.77-7.09
						c5.9-3.82,4.51-40.35,4.51-40.35C393.4,247.45,391.98,241.39,388.92,236.12z"/>
					<path style="fill:#C48281;" d="M316.59,277.03c-0.12,1.12-0.61,3.12-0.48,4.24c0.38,3.35,1.73,6.64,4.08,9.06
						c0.5,0.52,1.07,1.01,1.76,1.24c0.68,0.23,1.51,0.17,2.04-0.32c0.56-0.52,0.67-1.36,0.71-2.13c0.07-1.15,0.08-2.31-0.19-3.43
						c-0.27-1.12-0.86-2.19-1.81-2.85c-0.69-0.48-1.51-0.71-2.29-1.01c-0.78-0.3-1.43-0.82-2.04-1.48L316.59,277.03z"/>
				</g>
				<g>
					<g>
						<path style="fill:#C48281;" d="M350.91,219.33v13.38c-1.31,1.24-2.57,2.66-2.69,4.42c-0.12,1.69,0.92,3.34,2.39,4.18
							c1.47,0.84,3.29,0.93,4.92,0.48c1.63-0.45,3.08-1.4,4.35-2.52c3.44-3.06,5.8-8.17,5.8-12.7v-13.55L350.91,219.33z"/>
						<path style="fill:#AB6160;" d="M365.11,213.02c-1.39,7.36-4.26,13.74-14.2,16.03v-9.72L365.11,213.02z"/>
					</g>
					<path style="fill:#C48281;" d="M361.64,205.26c-0.12,0.89-0.2,2.67-0.02,3.55c0.18,0.88,0.6,1.73,1.27,2.32
						c0.68,0.59,1.55,0.83,2.42,0.61c-0.56-2.29,0.95-4.89,3.21-5.55c2.27-0.65,4.93,0.74,5.67,2.98c0.54,1.61,0.14,3.42-0.77,4.85
						c-0.91,1.43-2.28,2.51-3.73,3.38c-1.73,0.72-3.74-0.05-4.74-1.64c-4.27,5.89-11.94,10.49-19.31,10.17
						c-2-0.09-4.04-0.58-5.67-1.74c-2.87-2.04-3.21-5.28-3.69-8.47c-0.61-4.04-0.89-8.16-0.41-12.23
						c0.67-5.62,2.93-11.21,7.12-15.03C346.02,200.53,357.34,204.54,361.64,205.26z"/>
					<g>
						<polygon style="fill:#AB6160;" points="346.28,204.5 341.5,210.91 346.25,212.33 						"/>
						<path style="fill:#AB6160;" d="M350.67,215.18c-1.29,0.47-2.58,0.94-3.87,1.4c0.45,0.89,1.76,1.4,2.71,1.09
							C350.45,217.35,350.84,216.16,350.67,215.18z"/>
						<path style="opacity:0.3;" d="M350.67,215.18c-1.29,0.47-2.58,0.94-3.87,1.4c0.45,0.89,1.76,1.4,2.71,1.09
							C350.45,217.35,350.84,216.16,350.67,215.18z"/>
						<path style="fill:#AB6160;" d="M348.22,217.65c0.43,0.12,0.89,0.14,1.29,0.01c0.74-0.24,1.13-1.03,1.19-1.84
							c-0.52-0.05-1.06,0.06-1.5,0.35C348.69,216.51,348.34,217.06,348.22,217.65z"/>
						<path style="fill:#263238;" d="M353.26,205.51c0,0.77-0.63,1.4-1.4,1.39c-0.77,0-1.4-0.63-1.39-1.4c0-0.77,0.63-1.4,1.4-1.39
							C352.64,204.11,353.27,204.74,353.26,205.51z"/>
						<path style="fill:#263238;" d="M341.53,205.01c0,0.77-0.63,1.4-1.4,1.39c-0.77,0-1.4-0.63-1.39-1.4c0-0.77,0.63-1.4,1.4-1.39
							C340.91,203.61,341.53,204.24,341.53,205.01z"/>
						<path style="fill:#263238;" d="M340.19,199.44c-1.04,0.71-2.07,1.42-3.11,2.13c-0.3-0.74,0-1.69,0.61-2.19
							C338.31,198.88,339.53,198.99,340.19,199.44z"/>
						<path style="fill:#263238;" d="M352.16,199.32c1.03,0.72,2.06,1.44,3.09,2.16c0.31-0.73,0.02-1.69-0.6-2.2
							C354.04,198.77,352.82,198.88,352.16,199.32z"/>
					</g>
				</g>
			</g>
		</g>
	</g>
</g>
</svg>
